<svg width="18" height="18" viewBox="0 0 18 18" fill="none" xmlns="http://www.w3.org/2000/svg">
<path opacity="0.5" d="M6.59392 3.86009C6.88009 3.73919 7.01406 3.40919 6.89315 3.12302C6.77224 2.83685 6.44225 2.70289 6.15608 2.82379C3.53124 3.9328 1.6875 6.53169 1.6875 9.56251C1.6875 13.6011 4.96142 16.875 9 16.875C13.0386 16.875 16.3125 13.6011 16.3125 9.56251C16.3125 6.53169 14.4688 3.9328 11.8439 2.82379C11.5578 2.70289 11.2278 2.83685 11.1068 3.12302C10.9859 3.40919 11.1199 3.73919 11.4061 3.86009C13.6292 4.79936 15.1875 6.9996 15.1875 9.56251C15.1875 12.9798 12.4173 15.75 9 15.75C5.58274 15.75 2.8125 12.9798 2.8125 9.56251C2.8125 6.9996 4.37084 4.79936 6.59392 3.86009Z" fill="#00E0FF"/>
<path d="M9.5625 2.0625C9.5625 1.75184 9.31066 1.5 9 1.5C8.68934 1.5 8.4375 1.75184 8.4375 2.0625V5.0625C8.4375 5.37316 8.68934 5.625 9 5.625C9.31066 5.625 9.5625 5.37316 9.5625 5.0625V2.0625Z" fill="#00E0FF"/>
</svg>
