<svg width="151" height="8" viewBox="0 0 151 8" fill="none" xmlns="http://www.w3.org/2000/svg">
<path d="M71.6492 4.68146L71.314 5.05247L71.4567 5.18146L71.6492 5.18146L71.6492 4.68146ZM67.8706 1.26758L68.2057 0.896575L68.063 0.767581L67.8706 0.767581L67.8706 1.26758ZM38.5863 1.26758L38.5863 0.767582L38.3516 0.767582L38.2016 0.948218L38.5863 1.26758ZM35.7524 4.68146L35.7524 5.18146L35.9871 5.18146L36.1371 5.00083L35.7524 4.68146ZM3.63417 2.0148C2.16141 2.0148 0.967514 3.2087 0.967514 4.68146C0.967514 6.15422 2.16141 7.34813 3.63417 7.34813C5.10693 7.34813 6.30084 6.15422 6.30084 4.68146C6.30084 3.2087 5.10693 2.0148 3.63417 2.0148ZM151 4.18146L71.6492 4.18146L71.6492 5.18146L151 5.18146L151 4.18146ZM71.9844 4.31046L68.2057 0.896575L67.5354 1.63859L71.314 5.05247L71.9844 4.31046ZM67.8706 0.767581L38.5863 0.767582L38.5863 1.76758L67.8706 1.76758L67.8706 0.767581ZM38.2016 0.948218L35.3677 4.3621L36.1371 5.00083L38.971 1.58695L38.2016 0.948218ZM35.7524 4.18146L3.63417 4.18146L3.63417 5.18146L35.7524 5.18146L35.7524 4.18146Z" fill="url(#paint0_linear_4254_11622)"/>
<defs>
<linearGradient id="paint0_linear_4254_11622" x1="3.63417" y1="2.97452" x2="151" y2="2.97451" gradientUnits="userSpaceOnUse">
<stop stop-color="#00E0FF"/>
<stop offset="1" stop-color="#00E0FF" stop-opacity="0"/>
</linearGradient>
</defs>
</svg>
