<svg width="335" height="696" viewBox="0 0 335 696" fill="none" xmlns="http://www.w3.org/2000/svg">
<g filter="url(#filter0_b_4254_12261)">
<path d="M15 0H320C328.284 0 335 6.71573 335 15V681C335 689.284 328.284 696 320 696H224.37H15C6.71573 696 0 689.284 0 681V15C0 6.71573 6.71573 0 15 0Z" fill="black" fill-opacity="0.3"/>
<path d="M320 0.5H15C6.99188 0.5 0.5 6.99187 0.5 15V681C0.5 689.008 6.99188 695.5 15 695.5H224.37H320C328.008 695.5 334.5 689.008 334.5 681V15C334.5 6.99187 328.008 0.5 320 0.5Z" stroke="url(#paint0_linear_4254_12261)" stroke-opacity="0.3"/>
</g>
<defs>
<filter id="filter0_b_4254_12261" x="-66" y="-66" width="467" height="828" filterUnits="userSpaceOnUse" color-interpolation-filters="sRGB">
<feFlood flood-opacity="0" result="BackgroundImageFix"/>
<feGaussianBlur in="BackgroundImageFix" stdDeviation="33"/>
<feComposite in2="SourceAlpha" operator="in" result="effect1_backgroundBlur_4254_12261"/>
<feBlend mode="normal" in="SourceGraphic" in2="effect1_backgroundBlur_4254_12261" result="shape"/>
</filter>
<linearGradient id="paint0_linear_4254_12261" x1="116.406" y1="179.139" x2="341.446" y2="236.188" gradientUnits="userSpaceOnUse">
<stop stop-color="white" stop-opacity="0.3"/>
<stop offset="1" stop-color="#999999" stop-opacity="0"/>
</linearGradient>
</defs>
</svg>
