<?xml version="1.0" encoding="UTF-8"?>
<svg id="Layer_1" xmlns="http://www.w3.org/2000/svg" version="1.1" viewBox="0 0 32 32">
  <!-- Generator: Adobe Illustrator 29.1.0, SVG Export Plug-In . SVG Version: 2.1.0 Build 142)  -->
  <defs>
    <style>
      .st0 {
        fill: #fff;
      }

      .st1 {
        fill: #50af00;
      }
    </style>
  </defs>
  <path class="st1" d="M15.8,32.3c9,0,16-7.2,16-16S24.6.3,15.8.3-.2,7.5-.2,16.3s7.2,16,16,16Z"/>
  <path class="st0" d="M17,15v-2.8h2.3c.7,0,1.2-.5,1.2-1.2s-.5-1.2-1.2-1.2h-2.3v-.4c0-.7-.5-1.2-1.2-1.2s-1.2.5-1.2,1.2v.4c-1.9,0-3.5,1.8-3.5,3.9s1.6,3.7,3.5,3.9v2.8h-2.3c-.7,0-1.2.5-1.2,1.2s.5,1.2,1.2,1.2h2.3v.4c0,.7.5,1.2,1.2,1.2s1.2-.5,1.2-1.2v-.4c1.9,0,3.5-1.8,3.5-3.9s-1.6-3.7-3.5-3.9ZM17,20.3v-2.6c.5,0,1.1.7,1.1,1.4s-.4,1.2-1.1,1.4v-.2ZM14.6,12.4v2.6c-.5,0-1.1-.7-1.1-1.4s.4-1.2,1.1-1.4v.2Z"/>
</svg>