<svg width="57" height="49" viewBox="0 0 57 49" fill="none" xmlns="http://www.w3.org/2000/svg">
<path d="M55.3207 27.3878C55.1807 25.7852 53.8837 24.1703 51.7171 22.6661M55.3207 27.3878C55.3925 28.2092 55.156 28.9776 54.6476 29.6832C53.6176 31.1129 51.4719 32.2853 48.5134 33.1205C52.9323 31.8731 55.5379 29.8732 55.3207 27.3878ZM55.3207 27.3878C55.2912 27.0497 55.2102 26.7113 55.0804 26.3733C54.8473 25.7664 54.4569 25.1614 53.9249 24.5651C52.9753 23.5009 51.5745 22.4642 49.8114 21.493M55.3207 27.3878C55.5748 30.2956 51.9652 32.5389 46.1084 33.6899M51.7171 22.6661C46.9506 19.3569 37.9759 16.5833 27.8555 15.6537C13.1348 14.3015 1.56458 17.3628 2.01258 22.4913M51.7171 22.6661C50.2274 21.6319 48.3267 20.65 46.1084 19.7603C47.4695 20.3062 48.7109 20.8869 49.8114 21.493M2.01258 22.4913C2.04212 22.8293 2.12314 23.168 2.25295 23.506C2.48604 24.1129 2.87642 24.7178 3.40847 25.3141C4.35802 26.3783 5.75879 27.415 7.52195 28.3862M2.01258 22.4913C1.79547 20.0059 4.40118 18.0061 8.82006 16.7588C5.86154 17.5939 3.7157 18.7664 2.68576 20.196C2.17737 20.9017 1.94083 21.6699 2.01258 22.4913ZM2.01258 22.4913C2.15259 24.0939 3.44968 25.7089 5.61625 27.2131M7.52195 28.3862C8.62239 28.9924 9.86399 29.573 11.2252 30.1189C9.00683 29.2293 7.10592 28.2473 5.61625 27.2131M7.52195 28.3862C10.0561 29.7821 13.3388 31.0427 17.1063 32.0554M5.61625 27.2131C8.70192 29.3554 13.5512 31.2733 19.3333 32.6117M49.8114 21.493C47.2772 20.0971 43.9945 18.8365 40.227 17.8239" stroke="white" stroke-width="3" stroke-linecap="round"/>
<path d="M37.3982 4.26829C38.0894 3.83209 38.7605 3.45428 39.4063 3.13884C41.7549 1.99178 43.7698 1.66948 45.2049 2.36338C45.9404 2.71901 46.4789 3.32001 46.8303 4.12926C47.1585 4.88509 47.3233 5.82258 47.3327 6.9115M37.3982 4.26829C32.56 7.32171 26.7366 13.2362 21.6849 20.6461C13.3039 32.9397 10.2147 44.7031 14.7678 46.9568M37.3982 4.26829C36.3613 4.92273 35.2791 5.70861 34.1689 6.61245M14.7678 46.9568C14.7768 46.9612 14.7858 46.9656 14.7948 46.97C15.0975 47.1163 15.426 47.2175 15.7781 47.2752C16.4101 47.3789 17.118 47.3426 17.8881 47.1766C19.2626 46.8805 20.8357 46.1716 22.5314 45.1091C22.9282 44.8604 23.3318 44.5924 23.7411 44.3057C24.4233 43.8279 25.1214 43.2985 25.831 42.7208L28.9639 40.1751M14.7678 46.9568C12.5659 45.8669 12.1515 42.5527 13.2585 38.0302M46.7413 11.3031C47.1424 9.66449 47.3438 8.18451 47.3327 6.9115M47.3327 6.9115C47.3526 9.19465 46.6893 12.1435 45.4157 15.4794" stroke="white" stroke-width="3" stroke-linecap="round"/>
<path d="M28.0389 29.4168C28.0023 26.9891 27.9841 25.7752 28.7494 25.3333C29.5147 24.8915 30.5568 25.5142 32.6411 26.7598L33.1803 27.082C33.7725 27.4359 34.0687 27.6129 34.3949 27.6541C34.7211 27.6954 35.0405 27.5962 35.6793 27.3978L36.2608 27.2173C38.5087 26.5192 39.6326 26.1702 40.3082 26.7942C40.9838 27.4182 40.7636 28.6019 40.3233 30.9694L40.2094 31.5819C40.0843 32.2547 40.0217 32.591 40.0959 32.9197C40.1701 33.2483 40.3727 33.5319 40.7779 34.0992L41.1467 34.6157C42.5726 36.612 43.2855 37.6102 42.9377 38.4377C42.5899 39.2652 41.4117 39.3741 39.0554 39.5917L38.4458 39.648C37.7762 39.7099 37.4414 39.7408 37.161 39.9026C36.8806 40.0645 36.6865 40.339 36.2981 40.888L35.9445 41.3877C34.5779 43.3196 33.8946 44.2855 33.004 44.1729C32.1135 44.0604 31.6055 42.9439 30.5895 40.7109L30.3267 40.1332C30.0379 39.4987 29.8936 39.1814 29.6461 38.9529C29.3986 38.7243 29.076 38.6103 28.4308 38.3822L27.8434 38.1747C25.573 37.3722 24.4378 36.971 24.2352 36.074C24.0326 35.1769 24.8968 34.378 26.6252 32.7804L27.0724 32.367C27.5636 31.913 27.8091 31.686 27.9366 31.3829C28.064 31.0797 28.0588 30.7348 28.0484 30.0449L28.0389 29.4168Z" stroke="white" stroke-width="3"/>
</svg>
