<?xml version="1.0" encoding="UTF-8"?>
<svg id="Layer_1" xmlns="http://www.w3.org/2000/svg" version="1.1" viewBox="0 0 32 32">
  <!-- Generator: Adobe Illustrator 29.1.0, SVG Export Plug-In . SVG Version: 2.1.0 Build 142)  -->
  <defs>
    <style>
      .st0 {
        fill: #50af00;
      }
    </style>
  </defs>
  <path class="st0" d="M16,32C7.2,32,0,24.8,0,16S7.2,0,16,0s16,7.2,16,16-7.2,16-16,16ZM17.9,13.8v-2.4h5.4v-3.6h-14.7v3.6h5.4v2.4c-4.4.2-7.7,1.1-7.7,2.1s3.3,1.9,7.7,2.1v7.6h3.9v-7.6c4.4-.2,7.7-1.1,7.7-2.1s-3.3-1.9-7.7-2.1ZM17.9,17.4h0c-.1,0-.7,0-1.9,0s-1.7,0-2,0h0c-3.9-.2-6.8-.8-6.8-1.7s2.9-1.5,6.8-1.7v2.6c.3,0,1,0,2,0s1.8,0,1.9,0v-2.6c3.9.2,6.8.9,6.8,1.7s-2.9,1.5-6.8,1.7Z"/>
</svg>