<svg width="18" height="18" viewBox="0 0 18 18" fill="none" xmlns="http://www.w3.org/2000/svg">
<g clip-path="url(#clip0_4287_1214)">
<path fill-rule="evenodd" clip-rule="evenodd" d="M9.33822 2.07009C8.05099 2.00601 6.73148 2.29948 5.53162 2.99222C4.33233 3.68463 3.41799 4.68104 2.82973 5.82793C3.10364 6.00303 3.47897 6.26553 3.91107 6.62836C4.79334 7.36917 5.91394 8.52971 6.88928 10.219C7.86462 11.9084 8.30937 13.4591 8.5098 14.5936C8.60798 15.1493 8.64764 15.6056 8.66233 15.9304C9.94971 15.9944 11.2698 15.7007 12.4691 15.0083C13.669 14.3156 14.5829 13.3196 15.171 12.1728C14.8971 11.9977 14.5217 11.7351 14.0895 11.3722C13.2071 10.6314 12.0865 9.47089 11.1112 7.78155C10.1358 6.0922 9.69109 4.54145 9.4907 3.40696C9.39254 2.85123 9.3529 2.39486 9.33822 2.07009ZM10.4739 2.22099C10.4926 2.48283 10.5291 2.81786 10.5986 3.21128C10.7799 4.23822 11.1858 5.6608 12.0854 7.21905C12.9851 8.7773 14.0142 9.84006 14.8129 10.5107C15.1188 10.7676 15.3907 10.9667 15.6082 11.1138C16.1826 9.31605 16.0257 7.29353 15.0084 5.53152C13.9911 3.7695 12.318 2.62235 10.4739 2.22099ZM7.52666 15.7795C7.50796 15.5177 7.47146 15.1827 7.40196 14.7893C7.22053 13.7624 6.81466 12.3398 5.915 10.7815C5.01534 9.22329 3.98629 8.16051 3.18764 7.48991C2.88177 7.23308 2.60994 7.03399 2.39256 6.88688C1.81847 8.68367 1.97488 10.7068 2.99232 12.469C4.00975 14.2313 5.68357 15.3783 7.52666 15.7795ZM4.96912 2.01794C6.54043 1.11074 8.29178 0.792424 9.9649 0.995227C12.3947 1.28975 14.6636 2.68434 15.9827 4.96902C17.3018 7.2537 17.375 9.91593 16.4152 12.1675C15.7543 13.7178 14.6029 15.0754 13.0316 15.9826C9.17539 18.209 4.24444 16.8878 2.01804 13.0315C-0.208358 9.17528 1.11289 4.24434 4.96912 2.01794Z" fill="#00E0FF"/>
</g>
<defs>
<clipPath id="clip0_4287_1214">
<rect width="18" height="18" fill="white"/>
</clipPath>
</defs>
</svg>
