<svg width="64" height="189" viewBox="0 0 64 189" fill="none" xmlns="http://www.w3.org/2000/svg">
<circle cx="1.801" cy="1.801" r="1.801" transform="matrix(1 -8.74228e-08 -8.74228e-08 -1 56.5278 181.001)" fill="#00E0FF"/>
<circle cx="1.801" cy="1.801" r="1.801" transform="matrix(1 -8.74228e-08 -8.74228e-08 -1 56.5278 140.479)" fill="#00E0FF"/>
<circle cx="1.801" cy="1.801" r="1.801" transform="matrix(1 -8.74228e-08 -8.74228e-08 -1 56.5278 99.9561)" fill="#00E0FF"/>
<circle cx="1.801" cy="1.801" r="1.801" transform="matrix(1 -8.74228e-08 -8.74228e-08 -1 56.5278 59.4336)" fill="#00E0FF"/>
<circle cx="1.801" cy="1.801" r="1.801" transform="matrix(1 -8.74228e-08 -8.74228e-08 -1 7.00073 181.001)" fill="#00E0FF"/>
<g filter="url(#filter0_d_2744_4503)">
<path d="M58.1305 179.649L7.70264 179.649L58.1305 138.677L58.1305 98.1544L58.1305 0.000163438" stroke="url(#paint0_linear_2744_4503)" stroke-width="2" shape-rendering="crispEdges"/>
</g>
<defs>
<filter id="filter0_d_2744_4503" x="0.885986" y="0" width="62.2446" height="188.649" filterUnits="userSpaceOnUse" color-interpolation-filters="sRGB">
<feFlood flood-opacity="0" result="BackgroundImageFix"/>
<feColorMatrix in="SourceAlpha" type="matrix" values="0 0 0 0 0 0 0 0 0 0 0 0 0 0 0 0 0 0 127 0" result="hardAlpha"/>
<feOffset dy="4"/>
<feGaussianBlur stdDeviation="2"/>
<feComposite in2="hardAlpha" operator="out"/>
<feColorMatrix type="matrix" values="0 0 0 0 0 0 0 0 0 0 0 0 0 0 0 0 0 0 0.25 0"/>
<feBlend mode="normal" in2="BackgroundImageFix" result="effect1_dropShadow_2744_4503"/>
<feBlend mode="normal" in="SourceGraphic" in2="effect1_dropShadow_2744_4503" result="shape"/>
</filter>
<linearGradient id="paint0_linear_2744_4503" x1="-86.0834" y1="213.65" x2="-88.3346" y2="36.7017" gradientUnits="userSpaceOnUse">
<stop stop-color="#00E0FF"/>
<stop offset="1" stop-color="#00E0FF" stop-opacity="0"/>
</linearGradient>
</defs>
</svg>
