<?xml version="1.0" encoding="UTF-8"?>
<svg id="Layer_1" xmlns="http://www.w3.org/2000/svg" version="1.1" viewBox="0 0 23.9 32">
  <!-- Generator: Adobe Illustrator 29.2.1, SVG Export Plug-In . SVG Version: 2.1.0 Build 116)  -->
  <defs>
    <style>
      .st0 {
        fill: #00e0ff;
      }
    </style>
  </defs>
  <path class="st0" d="M3.7,17.8v7.1H0v3.6h5.5v3.6h3.7v-3.6h3.7v3.6h3.7v-3.6c3.6-.4,6.4-3.4,6.4-7s-1.2-4.4-3-5.7c1.3-1.3,2.1-3.1,2.1-5,0-3.3-2.3-6.1-5.5-6.9V0h-3.7v3.6h-3.7V0h-3.7v3.6H0v3.6h3.7v10.7h0ZM15.6,24.9H7.4v-7.1h8.2c2,0,3.7,1.6,3.7,3.6s-1.6,3.6-3.7,3.6h0ZM7.4,7.1h7.3c2,0,3.7,1.6,3.7,3.6s-1.6,3.6-3.7,3.6h-7.3v-7.1h0Z"/>
</svg>