<svg width="389" height="17" viewBox="0 0 389 17" fill="none" xmlns="http://www.w3.org/2000/svg">
<path d="M92.9744 10L93.3095 10.371L93.1668 10.5L92.9744 10.5L92.9744 10ZM97.4017 6L97.0665 5.62899L97.2093 5.5L97.4017 5.5L97.4017 6ZM131.714 6L131.714 5.5L131.948 5.5L132.098 5.68063L131.714 6ZM135.034 10L135.034 10.5L134.799 10.5L134.649 10.3194L135.034 10ZM172.667 7.33333C174.139 7.33333 175.333 8.52724 175.333 9.99999C175.333 11.4728 174.139 12.6667 172.667 12.6667C171.194 12.6667 170 11.4728 170 9.99999C170 8.52724 171.194 7.33333 172.667 7.33333ZM2.11729e-07 9.5L92.9744 9.5L92.9744 10.5L2.72223e-07 10.5L2.11729e-07 9.5ZM92.6392 9.62899L97.0665 5.62899L97.7369 6.371L93.3095 10.371L92.6392 9.62899ZM97.4017 5.5L131.714 5.5L131.714 6.5L97.4017 6.5L97.4017 5.5ZM132.098 5.68063L135.419 9.68063L134.649 10.3194L131.329 6.31936L132.098 5.68063ZM135.034 9.5L172.667 9.49999L172.667 10.5L135.034 10.5L135.034 9.5Z" fill="url(#paint0_linear_2454_5257)"/>
<path d="M296.026 10L295.69 10.371L295.833 10.5L296.026 10.5L296.026 10ZM291.598 6L291.933 5.629L291.791 5.5L291.598 5.5L291.598 6ZM257.286 6L257.286 5.5L257.052 5.5L256.902 5.68064L257.286 6ZM253.966 10L253.966 10.5L254.201 10.5L254.351 10.3194L253.966 10ZM216.333 7.33334C214.861 7.33334 213.667 8.52725 213.667 10C213.667 11.4728 214.861 12.6667 216.333 12.6667C217.806 12.6667 219 11.4728 219 10C219 8.52725 217.806 7.33334 216.333 7.33334ZM389 9.5L296.026 9.5L296.026 10.5L389 10.5L389 9.5ZM296.361 9.629L291.933 5.629L291.263 6.37101L295.69 10.371L296.361 9.629ZM291.598 5.5L257.286 5.5L257.286 6.5L291.598 6.5L291.598 5.5ZM256.902 5.68064L253.581 9.68064L254.351 10.3194L257.671 6.31937L256.902 5.68064ZM253.966 9.5L216.333 9.50001L216.333 10.5L253.966 10.5L253.966 9.5Z" fill="url(#paint1_linear_2454_5257)"/>
<path d="M192 1L187 6" stroke="#00E0FF"/>
<path d="M202 11L197 16" stroke="#00E0FF"/>
<path d="M187 11L192 16" stroke="#00E0FF"/>
<path d="M197 1L202 6" stroke="#00E0FF"/>
<circle cx="194.5" cy="8.5" r="4" stroke="#00E0FF"/>
<defs>
<linearGradient id="paint0_linear_2454_5257" x1="1.20988e-07" y1="8" x2="172.667" y2="7.99999" gradientUnits="userSpaceOnUse">
<stop stop-color="#00E0FF" stop-opacity="0"/>
<stop offset="1" stop-color="#00E0FF"/>
</linearGradient>
<linearGradient id="paint1_linear_2454_5257" x1="216.333" y1="8.00001" x2="389" y2="8" gradientUnits="userSpaceOnUse">
<stop stop-color="#00E0FF"/>
<stop offset="1" stop-color="#00E0FF" stop-opacity="0"/>
</linearGradient>
</defs>
</svg>
