<svg width="82" height="82" viewBox="0 0 82 82" fill="none" xmlns="http://www.w3.org/2000/svg">
<path d="M44.6122 56.4775L75.4903 24.0619C74.3884 23.4469 73.1072 23.0625 71.7491 23.0625H62.4216C60.6022 33.2356 51.7103 41 40.9991 41C30.2878 41 21.3959 33.2356 19.5766 23.0625H10.2491C8.89094 23.0625 7.63531 23.4469 6.50781 24.0619L37.3859 56.4775C39.2566 58.425 42.7159 58.425 44.5866 56.4775H44.6122Z" fill="white"/>
<path d="M78.8781 27.9297L56.3281 51.6072L78.6475 75.0541C79.1344 74.0547 79.4162 72.9528 79.4162 71.7741V30.7484C79.4162 29.7491 79.2113 28.8009 78.8525 27.9297H78.8781Z" fill="white"/>
<path d="M48.3041 60.0119C46.4078 62.0106 43.7428 63.1381 41.0009 63.1381C38.2591 63.1381 35.5941 61.985 33.6978 60.0119L29.2134 55.2969L6.94531 78.6669C7.94469 79.1538 9.04656 79.4356 10.2509 79.4356H71.7509C72.9297 79.4356 74.0316 79.1538 75.0566 78.6669L52.8141 55.3225L48.3297 60.0375L48.3041 60.0119Z" fill="white"/>
<path d="M3.12625 27.9297C2.7675 28.8009 2.5625 29.7491 2.5625 30.7484V71.7484C2.5625 72.9272 2.84437 74.0291 3.33125 75.0284L25.6506 51.5816L3.12625 27.9297Z" fill="white"/>
<path d="M41 35.875C50.1737 35.875 57.6562 28.3925 57.6562 19.2188C57.6562 10.045 50.1737 2.5625 41 2.5625C31.8263 2.5625 24.3438 10.045 24.3438 19.2188C24.3438 28.3925 31.8263 35.875 41 35.875ZM32.8512 16.9381C33.8762 15.99 35.5162 16.0413 36.4644 17.0919L39.1038 19.9363L45.51 12.9919C46.4838 11.9413 48.0981 11.89 49.1231 12.8381C50.1737 13.8119 50.225 15.4263 49.2512 16.4513L40.9487 25.42C40.4619 25.9581 39.77 26.24 39.0781 26.24C38.3862 26.24 37.6944 25.9325 37.2075 25.42L32.6975 20.5256C31.7238 19.475 31.8006 17.8606 32.8256 16.9125L32.8512 16.9381Z" fill="#00E0FF"/>
</svg>
