<svg width="265" height="12" viewBox="0 0 265 12" fill="none" xmlns="http://www.w3.org/2000/svg">
<path d="M63.3527 7.00539L63.6199 7.30112L63.5061 7.40394L63.3527 7.40394L63.3527 7.00539ZM66.3646 4.28418L66.0975 3.98845L66.2113 3.88563L66.3646 3.88563L66.3646 4.28418ZM89.7072 4.28418L89.7072 3.88563L89.8943 3.88563L90.0138 4.02961L89.7072 4.28418ZM91.9661 7.00539L91.9661 7.40394L91.779 7.40394L91.6594 7.25995L91.9661 7.00539ZM117.568 4.87978C118.742 4.87978 119.693 5.83145 119.693 7.00538C119.693 8.17932 118.742 9.13099 117.568 9.13099C116.394 9.13099 115.442 8.17932 115.442 7.00539C115.442 5.83145 116.394 4.87978 117.568 4.87978ZM0.102051 6.60684L63.3527 6.60684L63.3527 7.40394L0.102051 7.40394L0.102051 6.60684ZM63.0855 6.70966L66.0975 3.98845L66.6318 4.57991L63.6199 7.30112L63.0855 6.70966ZM66.3646 3.88563L89.7072 3.88563L89.7072 4.68273L66.3646 4.68273L66.3646 3.88563ZM90.0138 4.02961L92.2728 6.75082L91.6594 7.25995L89.4005 4.53874L90.0138 4.02961ZM91.9661 6.60684L117.568 6.60683L117.568 7.40394L91.9661 7.40394L91.9661 6.60684Z" fill="url(#paint0_linear_2156_2903)"/>
<path d="M201.489 7.00539L201.222 7.30112L201.336 7.40394L201.489 7.40394L201.489 7.00539ZM198.477 4.28418L198.744 3.98845L198.631 3.88563L198.477 3.88563L198.477 4.28418ZM175.135 4.28418L175.135 3.88563L174.948 3.88563L174.828 4.02962L175.135 4.28418ZM172.876 7.00539L172.876 7.40394L173.063 7.40394L173.182 7.25996L172.876 7.00539ZM147.274 4.87979C146.1 4.87979 145.149 5.83145 145.149 7.00539C145.149 8.17933 146.1 9.131 147.274 9.131C148.448 9.131 149.4 8.17933 149.4 7.00539C149.4 5.83145 148.448 4.87979 147.274 4.87979ZM264.74 6.60684L201.489 6.60684L201.489 7.40394L264.74 7.40394L264.74 6.60684ZM201.756 6.70966L198.744 3.98845L198.21 4.57991L201.222 7.30112L201.756 6.70966ZM198.477 3.88563L175.135 3.88563L175.135 4.68273L198.477 4.68273L198.477 3.88563ZM174.828 4.02962L172.569 6.75083L173.182 7.25996L175.441 4.53875L174.828 4.02962ZM172.876 6.60684L147.274 6.60684L147.274 7.40394L172.876 7.40394L172.876 6.60684Z" fill="url(#paint1_linear_2156_2903)"/>
<path d="M130.72 0.881836L127.318 4.28335" stroke="#00E0FF" stroke-width="0.797101"/>
<path d="M137.523 7.68457L134.121 11.0861" stroke="#00E0FF" stroke-width="0.797101"/>
<path d="M127.318 7.68491L130.72 11.0864" stroke="#00E0FF" stroke-width="0.797101"/>
<path d="M134.121 0.88218L137.523 4.28369" stroke="#00E0FF" stroke-width="0.797101"/>
<circle cx="132.42" cy="5.98421" r="2.66281" stroke="#00E0FF" stroke-width="0.797101"/>
<defs>
<linearGradient id="paint0_linear_2156_2903" x1="0.102051" y1="5.64478" x2="117.568" y2="5.64478" gradientUnits="userSpaceOnUse">
<stop stop-color="#00E0FF" stop-opacity="0"/>
<stop offset="1" stop-color="#00E0FF"/>
</linearGradient>
<linearGradient id="paint1_linear_2156_2903" x1="147.274" y1="5.64479" x2="264.74" y2="5.64478" gradientUnits="userSpaceOnUse">
<stop stop-color="#00E0FF"/>
<stop offset="1" stop-color="#00E0FF" stop-opacity="0"/>
</linearGradient>
</defs>
</svg>
