<svg width="62" height="62" viewBox="0 0 62 62" fill="none" xmlns="http://www.w3.org/2000/svg">
<g filter="url(#filter0_b_2032_6821)">
<circle cx="30.8198" cy="31.0507" r="30.6884" fill="white" fill-opacity="0.03"/>
</g>
<path d="M47.4486 27.8877H46.0934V27.8179H30.9526V34.5472H40.4602C39.0731 38.4645 35.346 41.2765 30.9526 41.2765C25.3782 41.2765 20.8587 36.7569 20.8587 31.1826C20.8587 25.6082 25.3782 21.0886 30.9526 21.0886C33.5257 21.0886 35.8666 22.0593 37.6491 23.6449L42.4075 18.8865C39.4029 16.0863 35.3838 14.3594 30.9526 14.3594C21.662 14.3594 14.1294 21.892 14.1294 31.1826C14.1294 40.4732 21.662 48.0057 30.9526 48.0057C40.2432 48.0057 47.7758 40.4732 47.7758 31.1826C47.7758 30.0546 47.6597 28.9535 47.4486 27.8877Z" fill="#FFC107"/>
<path d="M16.0693 23.3522L21.5966 27.4058C23.0922 23.703 26.7142 21.0886 30.9528 21.0886C33.5259 21.0886 35.8669 22.0593 37.6493 23.6449L42.4077 18.8865C39.4031 16.0863 35.384 14.3594 30.9528 14.3594C24.491 14.3594 18.8872 18.0075 16.0693 23.3522Z" fill="#FF3D00"/>
<path d="M30.9527 48.0064C35.2981 48.0064 39.2465 46.3434 42.2318 43.6391L37.025 39.2331C35.2795 40.5613 33.1461 41.2795 30.9527 41.2771C26.577 41.2771 22.8616 38.487 21.4619 34.5933L15.9758 38.8201C18.7601 44.2683 24.4143 48.0064 30.9527 48.0064Z" fill="#4CAF50"/>
<path d="M47.4486 27.8872H46.0935V27.8174H30.9526V34.5467H40.4603C39.7968 36.411 38.6016 38.0401 37.0224 39.2328L37.025 39.2311L42.2317 43.6371C41.8633 43.9718 47.7758 39.5936 47.7758 31.182C47.7758 30.054 47.6597 28.9529 47.4486 27.8872Z" fill="#1976D2"/>
<defs>
<filter id="filter0_b_2032_6821" x="-21.9484" y="-21.7174" width="105.536" height="105.536" filterUnits="userSpaceOnUse" color-interpolation-filters="sRGB">
<feFlood flood-opacity="0" result="BackgroundImageFix"/>
<feGaussianBlur in="BackgroundImageFix" stdDeviation="11.0399"/>
<feComposite in2="SourceAlpha" operator="in" result="effect1_backgroundBlur_2032_6821"/>
<feBlend mode="normal" in="SourceGraphic" in2="effect1_backgroundBlur_2032_6821" result="shape"/>
</filter>
</defs>
</svg>
