<svg width="35" height="35" viewBox="0 0 35 35" fill="none" xmlns="http://www.w3.org/2000/svg">
<path d="M29.6947 4.18218C26.4302 1.48523 22.0991 0 17.4993 0C12.8995 0 8.56836 1.48523 5.30383 4.18218C1.99947 6.91196 0.179688 10.5525 0.179688 14.433C0.179688 18.0839 1.76457 21.5142 4.64237 24.0922C7.31637 26.4875 10.9639 28.0196 14.9735 28.4432V34.2784C14.9735 34.5529 15.1293 34.8036 15.3754 34.9253C15.4768 34.9754 15.5862 35 15.6951 35C15.8507 35 16.0052 34.9497 16.1335 34.8516L26.9547 26.577C29.5176 24.642 31.2852 22.9453 32.5174 21.2374C34.066 19.0909 34.8189 16.8652 34.8189 14.433C34.8189 10.5525 32.9991 6.91196 29.6947 4.18218ZM26.0816 25.4278L16.4169 32.8182V27.7836C16.4169 27.4057 16.1254 27.0918 15.7486 27.0639C11.7933 26.7705 8.19108 25.3334 5.60541 23.0172C3.03735 20.7166 1.62299 17.6681 1.62299 14.433C1.62299 7.27047 8.74502 1.4433 17.4993 1.4433C26.2535 1.4433 33.3756 7.27047 33.3756 14.433C33.3756 19.2559 29.8716 22.5663 26.0816 25.4278Z" fill="white"/>
<path d="M21.6289 11.3054C21.6261 10.7656 21.3435 10.4649 20.891 10.4701C20.4428 10.4762 20.1729 10.7842 20.1701 11.3226C20.1623 12.3188 20.1679 13.3142 20.1658 14.3096C20.1658 14.4533 20.1524 14.5954 20.1404 14.8668C19.9699 14.6676 19.8733 14.5651 19.7873 14.4541C18.8641 13.2556 17.9437 12.0548 17.0212 10.8546C16.7957 10.5611 16.5103 10.3841 16.136 10.5015C15.7632 10.6181 15.5998 10.9225 15.5991 11.2901C15.592 13.2138 15.592 15.1362 15.5991 17.0591C15.5998 17.3745 15.7273 17.6451 16.0346 17.7903C16.5773 18.0457 17.091 17.6606 17.0973 16.9717C17.11 16.0316 17.1016 15.0901 17.1016 14.1485C17.1016 13.9669 17.1016 13.7851 17.1016 13.603C17.2827 13.6854 17.3708 13.7817 17.4512 13.8846C18.3716 15.0691 19.2898 16.2545 20.2081 17.4421C20.4358 17.7401 20.6965 17.958 21.1052 17.819C21.5055 17.6832 21.6324 17.3829 21.6324 16.9935C21.6303 15.0968 21.6359 13.2014 21.6289 11.3054Z" fill="white"/>
<path d="M24.4513 11.9752C24.5901 11.9645 24.7487 11.9428 24.91 11.9423C25.4542 11.9376 26.001 11.9484 26.5444 11.9353C26.7431 11.9296 26.9608 11.9156 27.1363 11.8331C27.4802 11.6727 27.5824 11.3517 27.4901 11.005C27.3999 10.6512 27.1363 10.4673 26.7635 10.4661C25.7959 10.4638 24.8283 10.4617 23.8607 10.4637C23.1672 10.4656 22.8896 10.7339 22.8881 11.4246C22.881 13.2521 22.881 15.0797 22.8881 16.9064C22.8896 17.5862 23.1862 17.8752 23.8635 17.878C24.7656 17.8822 25.6641 17.8808 26.5633 17.8771C26.7113 17.8757 26.8621 17.8554 27.0045 17.8137C27.3266 17.7193 27.5013 17.4994 27.5119 17.1566C27.5238 16.7972 27.3604 16.5494 27.0228 16.4462C26.8417 16.3909 26.6465 16.3772 26.4597 16.3757C25.7845 16.367 25.1073 16.3717 24.4202 16.3717C24.4202 15.8615 24.4202 15.4189 24.4202 14.9542C24.5491 14.9422 24.6535 14.9251 24.7586 14.924C25.3992 14.9205 26.0419 14.9384 26.6818 14.9156C27.2392 14.8947 27.5316 14.5893 27.5105 14.1167C27.4922 13.692 27.1806 13.4298 26.6704 13.4202C26.3153 13.4139 25.9615 13.419 25.6042 13.4188C24.2807 13.4188 24.2807 13.4188 24.4047 12.0917C24.4069 12.0654 24.4245 12.041 24.4513 11.9752Z" fill="white"/>
<path d="M11.279 16.3815C11.1303 16.3642 10.9802 16.3736 10.8308 16.3736C10.2057 16.3726 9.58346 16.3736 8.89984 16.3736C8.89984 16.1429 8.89984 15.9801 8.89984 15.8187C8.89984 14.3607 8.90265 12.9016 8.89775 11.4433C8.89565 10.8211 8.62005 10.4744 8.1486 10.4707C7.66019 10.4662 7.39592 10.7977 7.39592 11.4286C7.39455 13.2824 7.39311 15.1351 7.39736 16.9896C7.40025 17.5787 7.68631 17.8671 8.27691 17.8789C8.80689 17.8882 10.7971 17.8967 11.2601 17.8727C11.7117 17.8473 12.0261 17.5133 12.0197 17.1175C12.0127 16.7377 11.7117 16.4328 11.279 16.3815Z" fill="white"/>
<path d="M14.3293 11.2053C14.325 10.6435 14.1461 10.4656 13.6041 10.4649C13.0523 10.4634 12.8656 10.6333 12.8641 11.1914C12.8578 13.1689 12.8578 15.1457 12.8641 17.1239C12.8656 17.679 13.0671 17.8782 13.5893 17.8791C14.1263 17.882 14.3265 17.6747 14.3293 17.0957C14.3322 16.1277 14.3307 15.1603 14.3307 14.1915C14.3307 13.196 14.3322 12.2014 14.3293 11.2053Z" fill="white"/>
</svg>
