<svg width="1952" height="770" viewBox="0 0 1952 770" fill="none" xmlns="http://www.w3.org/2000/svg">
<g opacity="0.05" filter="url(#filter0_d_2453_5027)">
<mask id="path-1-outside-1_2453_5027" maskUnits="userSpaceOnUse" x="258" y="258" width="322" height="254" fill="black">
<rect fill="white" x="258" y="258" width="322" height="254"/>
<path d="M539.365 465.527V268.812H569.034V501H532.271L298.793 303.64V501H269.124V268.812H306.855L539.365 465.527Z"/>
</mask>
<path d="M539.365 465.527V268.812H569.034V501H532.271L298.793 303.64V501H269.124V268.812H306.855L539.365 465.527Z" fill="white"/>
<path d="M539.365 465.527L532.422 473.733L550.115 488.702V465.527H539.365ZM539.365 268.812V258.062H528.616V268.812H539.365ZM569.034 268.812H579.783V258.062H569.034V268.812ZM569.034 501V511.749H579.783V501H569.034ZM532.271 501L525.331 509.209L528.336 511.749H532.271V501ZM298.793 303.64L305.732 295.431L288.043 280.478V303.64H298.793ZM298.793 501V511.749H309.542V501H298.793ZM269.124 501H258.375V511.749H269.124V501ZM269.124 268.812V258.062H258.375V268.812H269.124ZM306.855 268.812L313.798 260.606L310.792 258.062H306.855V268.812ZM550.115 465.527V268.812H528.616V465.527H550.115ZM539.365 279.561H569.034V258.062H539.365V279.561ZM558.284 268.812V501H579.783V268.812H558.284ZM569.034 490.251H532.271V511.749H569.034V490.251ZM539.21 492.791L305.732 295.431L291.853 311.85L525.331 509.209L539.21 492.791ZM288.043 303.64V501H309.542V303.64H288.043ZM298.793 490.251H269.124V511.749H298.793V490.251ZM279.874 501V268.812H258.375V501H279.874ZM269.124 279.561H306.855V258.062H269.124V279.561ZM299.912 277.018L532.422 473.733L546.308 457.32L313.798 260.606L299.912 277.018Z" fill="white" mask="url(#path-1-outside-1_2453_5027)"/>
</g>
<g opacity="0.05" filter="url(#filter1_d_2453_5027)">
<mask id="path-3-outside-2_2453_5027" maskUnits="userSpaceOnUse" x="617.165" y="258" width="328" height="254" fill="black">
<rect fill="white" x="617.165" y="258" width="328" height="254"/>
<path d="M862.09 501H700.203C690.314 501 680.962 499.173 672.147 495.518C663.548 491.648 655.916 486.488 649.251 480.039C642.801 473.374 637.641 465.742 633.772 457.142C630.117 448.328 628.289 438.976 628.289 429.086V340.726C628.289 330.836 630.117 321.592 633.772 312.992C637.641 304.178 642.801 296.546 649.251 290.096C655.916 283.431 663.548 278.271 672.147 274.617C680.962 270.747 690.314 268.812 700.203 268.812H862.09C871.979 268.812 881.224 270.747 889.824 274.617C898.638 278.271 906.27 283.431 912.72 290.096C919.384 296.546 924.544 304.178 928.199 312.992C932.069 321.592 934.004 330.836 934.004 340.726V429.086C934.004 438.976 932.069 448.328 928.199 457.142C924.544 465.742 919.384 473.374 912.72 480.039C906.27 486.488 898.638 491.648 889.824 495.518C881.224 499.173 871.979 501 862.09 501ZM904.335 417.154V352.98C904.335 345.885 903.045 339.113 900.465 332.664C898.101 325.999 894.553 320.194 889.824 315.25C885.309 310.09 879.827 306.005 873.377 302.995C866.927 299.985 859.725 298.48 851.77 298.48H713.748C705.793 298.48 698.376 299.878 691.496 302.673C684.617 305.253 678.704 308.907 673.76 313.637C668.815 318.367 664.945 324.064 662.15 330.729C659.355 337.178 657.958 344.381 657.958 352.335V418.122C657.958 425.216 659.248 431.989 661.828 438.438C664.408 444.888 667.955 450.585 672.47 455.53C677.199 460.26 682.897 464.129 689.561 467.139C696.226 469.934 703.643 471.332 711.813 471.332H849.513C857.898 471.332 865.422 469.934 872.087 467.139C878.967 464.129 884.771 460.152 889.501 455.207C894.231 450.263 897.886 444.565 900.465 438.116C903.045 431.451 904.335 424.464 904.335 417.154Z"/>
</mask>
<path d="M862.09 501H700.203C690.314 501 680.962 499.173 672.147 495.518C663.548 491.648 655.916 486.488 649.251 480.039C642.801 473.374 637.641 465.742 633.772 457.142C630.117 448.328 628.289 438.976 628.289 429.086V340.726C628.289 330.836 630.117 321.592 633.772 312.992C637.641 304.178 642.801 296.546 649.251 290.096C655.916 283.431 663.548 278.271 672.147 274.617C680.962 270.747 690.314 268.812 700.203 268.812H862.09C871.979 268.812 881.224 270.747 889.824 274.617C898.638 278.271 906.27 283.431 912.72 290.096C919.384 296.546 924.544 304.178 928.199 312.992C932.069 321.592 934.004 330.836 934.004 340.726V429.086C934.004 438.976 932.069 448.328 928.199 457.142C924.544 465.742 919.384 473.374 912.72 480.039C906.27 486.488 898.638 491.648 889.824 495.518C881.224 499.173 871.979 501 862.09 501ZM904.335 417.154V352.98C904.335 345.885 903.045 339.113 900.465 332.664C898.101 325.999 894.553 320.194 889.824 315.25C885.309 310.09 879.827 306.005 873.377 302.995C866.927 299.985 859.725 298.48 851.77 298.48H713.748C705.793 298.48 698.376 299.878 691.496 302.673C684.617 305.253 678.704 308.907 673.76 313.637C668.815 318.367 664.945 324.064 662.15 330.729C659.355 337.178 657.958 344.381 657.958 352.335V418.122C657.958 425.216 659.248 431.989 661.828 438.438C664.408 444.888 667.955 450.585 672.47 455.53C677.199 460.26 682.897 464.129 689.561 467.139C696.226 469.934 703.643 471.332 711.813 471.332H849.513C857.898 471.332 865.422 469.934 872.087 467.139C878.967 464.129 884.771 460.152 889.501 455.207C894.231 450.263 897.886 444.565 900.465 438.116C903.045 431.451 904.335 424.464 904.335 417.154Z" fill="white"/>
<path d="M672.147 495.518L667.736 505.32L667.882 505.386L668.03 505.447L672.147 495.518ZM649.251 480.039L641.526 487.514L641.649 487.641L641.775 487.763L649.251 480.039ZM633.772 457.142L623.842 461.259L623.903 461.407L623.969 461.553L633.772 457.142ZM633.772 312.992L623.929 308.671L623.903 308.729L623.879 308.788L633.772 312.992ZM649.251 290.096L641.65 282.495L641.65 282.495L649.251 290.096ZM672.147 274.617L676.352 284.51L676.41 284.485L676.468 284.459L672.147 274.617ZM889.824 274.617L885.412 284.419L885.558 284.485L885.706 284.546L889.824 274.617ZM912.72 290.096L904.995 297.571L905.118 297.698L905.244 297.82L912.72 290.096ZM928.199 312.992L918.269 317.109L918.331 317.257L918.396 317.403L928.199 312.992ZM928.199 457.142L918.356 452.821L918.331 452.879L918.306 452.938L928.199 457.142ZM912.72 480.039L905.119 472.438L905.119 472.438L912.72 480.039ZM889.824 495.518L894.028 505.411L894.087 505.386L894.145 505.36L889.824 495.518ZM900.465 332.664L890.335 336.258L890.406 336.459L890.485 336.656L900.465 332.664ZM889.824 315.25L881.734 322.328L881.891 322.508L882.056 322.68L889.824 315.25ZM873.377 302.995L877.923 293.254L877.923 293.254L873.377 302.995ZM691.496 302.673L695.271 312.738L695.407 312.687L695.542 312.632L691.496 302.673ZM662.15 330.729L672.013 335.003L672.039 334.944L672.063 334.886L662.15 330.729ZM661.828 438.438L671.808 434.446L671.808 434.446L661.828 438.438ZM672.47 455.53L664.531 462.778L664.696 462.958L664.869 463.131L672.47 455.53ZM689.561 467.139L685.137 476.936L685.27 476.996L685.404 477.052L689.561 467.139ZM872.087 467.139L876.244 477.052L876.32 477.02L876.395 476.987L872.087 467.139ZM889.501 455.207L881.733 447.777L881.733 447.777L889.501 455.207ZM900.465 438.116L910.446 442.108L910.468 442.052L910.49 441.996L900.465 438.116ZM862.09 490.251H700.203V511.749H862.09V490.251ZM700.203 490.251C691.674 490.251 683.726 488.682 676.264 485.588L668.03 505.447C678.197 509.663 688.953 511.749 700.203 511.749V490.251ZM676.558 485.715C669.073 482.347 662.482 477.884 656.726 472.314L641.775 487.763C649.349 495.092 658.022 500.949 667.736 505.32L676.558 485.715ZM656.975 472.563C651.405 466.807 646.943 460.216 643.574 452.731L623.969 461.553C628.34 471.268 634.197 479.941 641.526 487.514L656.975 472.563ZM643.701 453.025C640.607 445.563 639.039 437.615 639.039 429.086H617.54C617.54 440.336 619.626 451.092 623.842 461.259L643.701 453.025ZM639.039 429.086V340.726H617.54V429.086H639.039ZM639.039 340.726C639.039 332.195 640.608 324.39 643.665 317.197L623.879 308.788C619.626 318.794 617.54 329.477 617.54 340.726H639.039ZM643.614 317.313C646.977 309.653 651.398 303.15 656.852 297.697L641.65 282.495C634.204 289.941 628.306 298.702 623.929 308.671L643.614 317.313ZM656.852 297.697C662.551 291.998 669.032 287.621 676.352 284.51L667.943 264.724C658.063 268.922 649.281 274.864 641.65 282.495L656.852 297.697ZM676.468 284.459C683.883 281.204 691.76 279.561 700.203 279.561V258.062C688.868 258.062 678.04 260.29 667.826 264.774L676.468 284.459ZM700.203 279.561H862.09V258.062H700.203V279.561ZM862.09 279.561C870.534 279.561 878.267 281.204 885.412 284.419L894.235 264.814C884.181 260.29 873.425 258.062 862.09 258.062V279.561ZM885.706 284.546C893.203 287.655 899.597 291.993 904.995 297.571L920.444 282.62C912.943 274.869 904.073 268.888 893.941 264.687L885.706 284.546ZM905.244 297.82C910.822 303.218 915.161 309.612 918.269 317.109L938.129 308.875C933.928 298.743 927.947 289.873 920.195 282.371L905.244 297.82ZM918.396 317.403C921.612 324.549 923.254 332.281 923.254 340.726H944.753C944.753 329.391 942.526 318.635 938.002 308.581L918.396 317.403ZM923.254 340.726V429.086H944.753V340.726H923.254ZM923.254 429.086C923.254 437.53 921.612 445.406 918.356 452.821L938.042 461.463C942.526 451.249 944.753 440.422 944.753 429.086H923.254ZM918.306 452.938C915.195 460.257 910.817 466.739 905.119 472.438L920.321 487.64C927.952 480.009 933.893 471.226 938.092 461.347L918.306 452.938ZM905.119 472.438C899.665 477.891 893.162 482.312 885.502 485.675L894.145 505.36C904.114 500.984 912.875 495.085 920.321 487.64L905.119 472.438ZM885.619 485.625C878.426 488.682 870.62 490.251 862.09 490.251V511.749C873.339 511.749 884.022 509.663 894.028 505.411L885.619 485.625ZM915.085 417.154V352.98H893.586V417.154H915.085ZM915.085 352.98C915.085 344.548 913.545 336.418 910.446 328.671L890.485 336.656C892.546 341.808 893.586 347.223 893.586 352.98H915.085ZM910.596 329.069C907.741 321.022 903.406 313.898 897.592 307.819L882.056 322.68C885.7 326.49 888.46 330.976 890.335 336.258L910.596 329.069ZM897.913 308.171C892.377 301.844 885.673 296.871 877.923 293.254L868.831 312.736C873.98 315.139 878.24 318.335 881.734 322.328L897.913 308.171ZM877.923 293.254C869.89 289.506 861.11 287.731 851.77 287.731V309.23C858.34 309.23 863.964 310.465 868.831 312.736L877.923 293.254ZM851.77 287.731H713.748V309.23H851.77V287.731ZM713.748 287.731C704.506 287.731 695.704 289.361 687.45 292.714L695.542 312.632C701.047 310.395 707.08 309.23 713.748 309.23V287.731ZM687.722 292.608C679.582 295.66 672.401 300.062 666.329 305.869L681.19 321.405C685.008 317.753 689.651 314.845 695.271 312.738L687.722 292.608ZM666.329 305.869C660.258 311.676 655.57 318.624 652.237 326.572L672.063 334.886C674.32 329.505 677.371 325.058 681.19 321.405L666.329 305.869ZM652.287 326.455C648.835 334.42 647.208 343.103 647.208 352.335H668.707C668.707 345.658 669.875 339.937 672.013 335.003L652.287 326.455ZM647.208 352.335V418.122H668.707V352.335H647.208ZM647.208 418.122C647.208 426.554 648.748 434.684 651.847 442.43L671.808 434.446C669.747 429.293 668.707 423.879 668.707 418.122H647.208ZM651.847 442.43C654.888 450.034 659.113 456.844 664.531 462.778L680.408 448.282C676.797 444.326 673.927 439.742 671.808 434.446L651.847 442.43ZM664.869 463.131C670.598 468.86 677.4 473.442 685.137 476.936L693.986 457.343C688.393 454.817 683.801 451.659 680.071 447.929L664.869 463.131ZM685.404 477.052C693.546 480.467 702.401 482.081 711.813 482.081V460.582C704.885 460.582 698.906 459.401 693.718 457.226L685.404 477.052ZM711.813 482.081H849.513V460.582H711.813V482.081ZM849.513 482.081C859.099 482.081 868.069 480.48 876.244 477.052L867.93 457.226C862.775 459.388 856.696 460.582 849.513 460.582V482.081ZM876.395 476.987C884.449 473.464 891.465 468.705 897.269 462.638L881.733 447.777C878.077 451.599 873.484 454.795 867.778 457.291L876.395 476.987ZM897.269 462.638C902.964 456.684 907.363 449.815 910.446 442.108L890.485 434.123C888.408 439.316 885.497 443.842 881.733 447.777L897.269 462.638ZM910.49 441.996C913.56 434.065 915.085 425.76 915.085 417.154H893.586C893.586 423.168 892.531 428.837 890.441 434.235L910.49 441.996Z" fill="white" mask="url(#path-3-outside-2_2453_5027)"/>
</g>
<g opacity="0.05" filter="url(#filter2_d_2453_5027)">
<mask id="path-5-outside-3_2453_5027" maskUnits="userSpaceOnUse" x="966.995" y="258" width="432" height="254" fill="black">
<rect fill="white" x="966.995" y="258" width="432" height="254"/>
<path d="M1180.45 474.556H1185.61L1342.66 268.812H1377.49L1204.31 501H1162.07L988.894 268.812H1024.05L1180.45 474.556Z"/>
</mask>
<path d="M1180.45 474.556H1185.61L1342.66 268.812H1377.49L1204.31 501H1162.07L988.894 268.812H1024.05L1180.45 474.556Z" fill="white"/>
<path d="M1180.45 474.556L1171.89 481.062L1175.12 485.306H1180.45V474.556ZM1185.61 474.556V485.306H1190.93L1194.15 481.079L1185.61 474.556ZM1342.66 268.812V258.062H1337.34L1334.11 262.29L1342.66 268.812ZM1377.49 268.812L1386.1 275.239L1398.91 258.062H1377.49V268.812ZM1204.31 501V511.749H1209.71L1212.93 507.427L1204.31 501ZM1162.07 501L1153.45 507.427L1156.68 511.749H1162.07V501ZM988.894 268.812V258.062H967.467L980.278 275.239L988.894 268.812ZM1024.05 268.812L1032.6 262.307L1029.38 258.062H1024.05V268.812ZM1180.45 485.306H1185.61V463.807H1180.45V485.306ZM1194.15 481.079L1351.2 275.334L1334.11 262.29L1177.06 468.034L1194.15 481.079ZM1342.66 279.561H1377.49V258.062H1342.66V279.561ZM1368.87 262.385L1195.7 494.573L1212.93 507.427L1386.1 275.239L1368.87 262.385ZM1204.31 490.251H1162.07V511.749H1204.31V490.251ZM1170.68 494.573L997.511 262.385L980.278 275.239L1153.45 507.427L1170.68 494.573ZM988.894 279.561H1024.05V258.062H988.894V279.561ZM1015.49 275.317L1171.89 481.062L1189.01 468.051L1032.6 262.307L1015.49 275.317Z" fill="white" mask="url(#path-5-outside-3_2453_5027)"/>
</g>
<g opacity="0.05" filter="url(#filter3_d_2453_5027)">
<mask id="path-7-outside-4_2453_5027" maskUnits="userSpaceOnUse" x="1308" y="258" width="396" height="254" fill="black">
<rect fill="white" x="1308" y="258" width="396" height="254"/>
<path d="M1682.79 501H1648.29L1609.27 445.855H1402.56L1363.21 501H1329.03L1487.05 268.812H1524.45L1682.79 501ZM1504.14 298.48L1420.61 416.187H1591.53L1507.36 298.48H1504.14Z"/>
</mask>
<path d="M1682.79 501H1648.29L1609.27 445.855H1402.56L1363.21 501H1329.03L1487.05 268.812H1524.45L1682.79 501ZM1504.14 298.48L1420.61 416.187H1591.53L1507.36 298.48H1504.14Z" fill="white"/>
<path d="M1682.79 501V511.749H1703.14L1691.67 494.944L1682.79 501ZM1648.29 501L1639.51 507.209L1642.73 511.749H1648.29V501ZM1609.27 445.855L1618.04 439.646L1614.83 435.106H1609.27V445.855ZM1402.56 445.855V435.106H1397.02L1393.81 439.612L1402.56 445.855ZM1363.21 501V511.749H1368.75L1371.96 507.243L1363.21 501ZM1329.03 501L1320.14 494.952L1308.71 511.749H1329.03V501ZM1487.05 268.812V258.062H1481.36L1478.16 262.764L1487.05 268.812ZM1524.45 268.812L1533.34 262.756L1530.13 258.062H1524.45V268.812ZM1504.14 298.48V287.731H1498.58L1495.37 292.26L1504.14 298.48ZM1420.61 416.187L1411.85 409.966L1399.81 426.936H1420.61V416.187ZM1591.53 416.187V426.936H1612.43L1600.27 409.934L1591.53 416.187ZM1507.36 298.48L1516.11 292.228L1512.89 287.731H1507.36V298.48ZM1682.79 490.251H1648.29V511.749H1682.79V490.251ZM1657.06 494.791L1618.04 439.646L1600.49 452.064L1639.51 507.209L1657.06 494.791ZM1609.27 435.106H1402.56V456.605H1609.27V435.106ZM1393.81 439.612L1354.46 494.757L1371.96 507.243L1411.31 452.098L1393.81 439.612ZM1363.21 490.251H1329.03V511.749H1363.21V490.251ZM1337.92 507.048L1495.93 274.86L1478.16 262.764L1320.14 494.952L1337.92 507.048ZM1487.05 279.561H1524.45V258.062H1487.05V279.561ZM1515.57 274.868L1673.91 507.056L1691.67 494.944L1533.34 262.756L1515.57 274.868ZM1495.37 292.26L1411.85 409.966L1429.38 422.408L1512.9 304.701L1495.37 292.26ZM1420.61 426.936H1591.53V405.437H1420.61V426.936ZM1600.27 409.934L1516.11 292.228L1498.62 304.733L1582.79 422.439L1600.27 409.934ZM1507.36 287.731H1504.14V309.23H1507.36V287.731Z" fill="white" mask="url(#path-7-outside-4_2453_5027)"/>
</g>
<defs>
<filter id="filter0_d_2453_5027" x="0.38797" y="0.0763245" width="837.382" height="769.66" filterUnits="userSpaceOnUse" color-interpolation-filters="sRGB">
<feFlood flood-opacity="0" result="BackgroundImageFix"/>
<feColorMatrix in="SourceAlpha" type="matrix" values="0 0 0 0 0 0 0 0 0 0 0 0 0 0 0 0 0 0 127 0" result="hardAlpha"/>
<feOffset/>
<feGaussianBlur stdDeviation="134.368"/>
<feComposite in2="hardAlpha" operator="out"/>
<feColorMatrix type="matrix" values="0 0 0 0 1 0 0 0 0 1 0 0 0 0 1 0 0 0 0.25 0"/>
<feBlend mode="normal" in2="BackgroundImageFix" result="effect1_dropShadow_2453_5027"/>
<feBlend mode="normal" in="SourceGraphic" in2="effect1_dropShadow_2453_5027" result="shape"/>
</filter>
<filter id="filter1_d_2453_5027" x="359.553" y="0.0763245" width="843.187" height="769.66" filterUnits="userSpaceOnUse" color-interpolation-filters="sRGB">
<feFlood flood-opacity="0" result="BackgroundImageFix"/>
<feColorMatrix in="SourceAlpha" type="matrix" values="0 0 0 0 0 0 0 0 0 0 0 0 0 0 0 0 0 0 127 0" result="hardAlpha"/>
<feOffset/>
<feGaussianBlur stdDeviation="134.368"/>
<feComposite in2="hardAlpha" operator="out"/>
<feColorMatrix type="matrix" values="0 0 0 0 1 0 0 0 0 1 0 0 0 0 1 0 0 0 0.25 0"/>
<feBlend mode="normal" in2="BackgroundImageFix" result="effect1_dropShadow_2453_5027"/>
<feBlend mode="normal" in="SourceGraphic" in2="effect1_dropShadow_2453_5027" result="shape"/>
</filter>
<filter id="filter2_d_2453_5027" x="720.158" y="0.0763245" width="926.065" height="769.66" filterUnits="userSpaceOnUse" color-interpolation-filters="sRGB">
<feFlood flood-opacity="0" result="BackgroundImageFix"/>
<feColorMatrix in="SourceAlpha" type="matrix" values="0 0 0 0 0 0 0 0 0 0 0 0 0 0 0 0 0 0 127 0" result="hardAlpha"/>
<feOffset/>
<feGaussianBlur stdDeviation="134.368"/>
<feComposite in2="hardAlpha" operator="out"/>
<feColorMatrix type="matrix" values="0 0 0 0 1 0 0 0 0 1 0 0 0 0 1 0 0 0 0.25 0"/>
<feBlend mode="normal" in2="BackgroundImageFix" result="effect1_dropShadow_2453_5027"/>
<feBlend mode="normal" in="SourceGraphic" in2="effect1_dropShadow_2453_5027" result="shape"/>
</filter>
<filter id="filter3_d_2453_5027" x="1060.29" y="0.0763245" width="891.237" height="769.66" filterUnits="userSpaceOnUse" color-interpolation-filters="sRGB">
<feFlood flood-opacity="0" result="BackgroundImageFix"/>
<feColorMatrix in="SourceAlpha" type="matrix" values="0 0 0 0 0 0 0 0 0 0 0 0 0 0 0 0 0 0 127 0" result="hardAlpha"/>
<feOffset/>
<feGaussianBlur stdDeviation="134.368"/>
<feComposite in2="hardAlpha" operator="out"/>
<feColorMatrix type="matrix" values="0 0 0 0 1 0 0 0 0 1 0 0 0 0 1 0 0 0 0.25 0"/>
<feBlend mode="normal" in2="BackgroundImageFix" result="effect1_dropShadow_2453_5027"/>
<feBlend mode="normal" in="SourceGraphic" in2="effect1_dropShadow_2453_5027" result="shape"/>
</filter>
</defs>
</svg>
