<svg width="203" height="17" viewBox="0 0 203 17" fill="none" xmlns="http://www.w3.org/2000/svg">
<path d="M92.9743 10L93.3095 10.371L93.1668 10.5L92.9743 10.5L92.9743 10ZM97.4017 6L97.0665 5.629L97.2093 5.5L97.4017 5.5L97.4017 6ZM131.714 6L131.714 5.5L131.948 5.5L132.098 5.68064L131.714 6ZM135.034 10L135.034 10.5L134.799 10.5L134.649 10.3194L135.034 10ZM172.667 7.33334C174.139 7.33334 175.333 8.52725 175.333 10C175.333 11.4728 174.139 12.6667 172.667 12.6667C171.194 12.6667 170 11.4728 170 10C170 8.52725 171.194 7.33334 172.667 7.33334ZM-2.11729e-07 9.5L92.9743 9.5L92.9743 10.5L-2.72223e-07 10.5L-2.11729e-07 9.5ZM92.6392 9.629L97.0665 5.629L97.7369 6.37101L93.3095 10.371L92.6392 9.629ZM97.4017 5.5L131.714 5.5L131.714 6.5L97.4017 6.5L97.4017 5.5ZM132.098 5.68064L135.419 9.68064L134.649 10.3194L131.329 6.31937L132.098 5.68064ZM135.034 9.5L172.667 9.50001L172.667 10.5L135.034 10.5L135.034 9.5Z" fill="url(#paint0_linear_2556_4237)"/>
<path d="M197 1L202 6" stroke="#00E0FF"/>
<path d="M187 11L192 16" stroke="#00E0FF"/>
<path d="M202 11L197 16" stroke="#00E0FF"/>
<path d="M192 1L187 6" stroke="#00E0FF"/>
<circle cx="4.5" cy="4.5" r="4" transform="matrix(-1 0 0 1 199 4)" stroke="#00E0FF"/>
<defs>
<linearGradient id="paint0_linear_2556_4237" x1="172.667" y1="8.00001" x2="-1.20988e-07" y2="8" gradientUnits="userSpaceOnUse">
<stop stop-color="#00E0FF"/>
<stop offset="1" stop-color="#00E0FF" stop-opacity="0"/>
</linearGradient>
</defs>
</svg>
