<svg width="148" height="148" viewBox="0 0 148 148" fill="none" xmlns="http://www.w3.org/2000/svg">
<path id="Vector" d="M0 0V51.2308H51.2308V0H0ZM62.6154 0V11.3846H74V0H62.6154ZM74 11.3846V22.7692H62.6154V45.5385H74V34.1538H85.3846V11.3846H74ZM74 45.5385V62.6154H22.7692V74H11.3846V85.3846H34.1538V74H45.5385V85.3846H74V74H85.3846V85.3846H102.462V74H113.846V62.6154H85.3846V45.5385H74ZM113.846 74V85.3846H148V74H136.615V62.6154H125.231V74H113.846ZM11.3846 74V62.6154H0V74H11.3846ZM96.7692 0V51.2308H148V0H96.7692ZM11.3846 11.3846H39.8462V39.8462H11.3846V11.3846ZM108.154 11.3846H136.615V39.8462H108.154V11.3846ZM17.0769 17.0769V34.1538H34.1538V17.0769H17.0769ZM113.846 17.0769V34.1538H130.923V17.0769H113.846ZM62.6154 91.0769V102.462H74V91.0769H62.6154ZM74 102.462V113.846H62.6154V136.615H74V125.231H96.7692V113.846H108.154V102.462H119.538V113.846H108.154V125.231H96.7692V148H108.154V136.615H119.538V125.231H125.231V136.615H119.538V148H130.923V136.615H136.615V125.231H148V102.462H136.615V91.0769H96.7692V102.462H74ZM136.615 136.615V148H148V136.615H136.615ZM74 136.615V148H85.3846V136.615H74ZM0 96.7692V148H51.2308V96.7692H0ZM11.3846 108.154H39.8462V136.615H11.3846V108.154ZM17.0769 113.846V130.923H34.1538V113.846H17.0769Z" fill="#00E0FF"/>
</svg>
