<?xml version="1.0" encoding="UTF-8"?>
<svg id="Layer_1" xmlns="http://www.w3.org/2000/svg" version="1.1" viewBox="0 0 32 32">
  <!-- Generator: Adobe Illustrator 29.2.1, SVG Export Plug-In . SVG Version: 2.1.0 Build 116)  -->
  <defs>
    <style>
      .st0 {
        fill: #00e0ff;
        fill-rule: evenodd;
      }
    </style>
  </defs>
  <path class="st0" d="M1.2,12.8h25.5c.3,0,.6.1.9.4l4,4.1c.7.8.2,2-.9,2H5.2c-.3,0-.6-.1-.9-.4L.3,14.8c-.7-.8-.2-2,.9-2ZM.3,7.3L4.4,3.2c.2-.2.5-.4.9-.4h25.5c1.1,0,1.6,1.3.9,2l-4,4.1c-.2.2-.5.4-.9.4H1.2c-1.1,0-1.6-1.3-.9-2ZM31.6,24.7l-4,4.1c-.2.2-.5.4-.9.4H1.2c-1.1,0-1.6-1.3-.9-2l4-4.1c.2-.2.5-.4.9-.4h25.5c1.1,0,1.6,1.3.9,2Z"/>
</svg>