<svg width="332" height="15" viewBox="0 0 332 15" fill="none" xmlns="http://www.w3.org/2000/svg">
<path d="M79.3508 8.68146L79.686 9.05246L79.5433 9.18146L79.3508 9.18146L79.3508 8.68146ZM83.1294 5.26758L82.7943 4.89657L82.937 4.76758L83.1294 4.76758L83.1294 5.26758ZM112.414 5.26757L112.414 4.76757L112.648 4.76757L112.798 4.94821L112.414 5.26757ZM115.248 8.68145L115.248 9.18145L115.013 9.18145L114.863 9.00082L115.248 8.68145ZM147.366 6.01479C148.839 6.01479 150.032 7.20869 150.032 8.68145C150.032 10.1542 148.839 11.3481 147.366 11.3481C145.893 11.3481 144.699 10.1542 144.699 8.68145C144.699 7.20869 145.893 6.01479 147.366 6.01479ZM1.76273e-07 8.18146L79.3508 8.18146L79.3508 9.18146L2.36767e-07 9.18146L1.76273e-07 8.18146ZM79.0156 8.31045L82.7943 4.89657L83.4646 5.63858L79.686 9.05246L79.0156 8.31045ZM83.1294 4.76758L112.414 4.76757L112.414 5.76757L83.1294 5.76758L83.1294 4.76758ZM112.798 4.94821L115.632 8.36209L114.863 9.00082L112.029 5.58694L112.798 4.94821ZM115.248 8.18145L147.366 8.18145L147.366 9.18145L115.248 9.18145L115.248 8.18145Z" fill="url(#paint0_linear_2373_6489)"/>
<path d="M252.649 8.68146L252.314 9.05247L252.457 9.18146L252.649 9.18146L252.649 8.68146ZM248.871 5.26758L249.206 4.89658L249.063 4.76758L248.871 4.76758L248.871 5.26758ZM219.586 5.26758L219.586 4.76758L219.352 4.76758L219.202 4.94822L219.586 5.26758ZM216.752 8.68146L216.752 9.18146L216.987 9.18146L217.137 9.00083L216.752 8.68146ZM184.634 6.0148C183.161 6.0148 181.968 7.2087 181.968 8.68146C181.968 10.1542 183.161 11.3481 184.634 11.3481C186.107 11.3481 187.301 10.1542 187.301 8.68146C187.301 7.2087 186.107 6.0148 184.634 6.0148ZM332 8.18146L252.649 8.18146L252.649 9.18146L332 9.18146L332 8.18146ZM252.984 8.31046L249.206 4.89658L248.535 5.63859L252.314 9.05247L252.984 8.31046ZM248.871 4.76758L219.586 4.76758L219.586 5.76758L248.871 5.76758L248.871 4.76758ZM219.202 4.94822L216.368 8.3621L217.137 9.00083L219.971 5.58695L219.202 4.94822ZM216.752 8.18146L184.634 8.18146L184.634 9.18146L216.752 9.18146L216.752 8.18146Z" fill="url(#paint1_linear_2373_6489)"/>
<path d="M163.866 1L159.599 5.26735" stroke="#00E0FF"/>
<path d="M172.401 9.53418L168.134 13.8015" stroke="#00E0FF"/>
<path d="M159.599 9.53441L163.866 13.8018" stroke="#00E0FF"/>
<path d="M168.134 1.00023L172.401 5.26758" stroke="#00E0FF"/>
<circle cx="166" cy="7.40116" r="3.34062" stroke="#00E0FF"/>
<defs>
<linearGradient id="paint0_linear_2373_6489" x1="1.0326e-07" y1="6.97452" x2="147.366" y2="6.97451" gradientUnits="userSpaceOnUse">
<stop stop-color="#00E0FF" stop-opacity="0"/>
<stop offset="1" stop-color="#00E0FF"/>
</linearGradient>
<linearGradient id="paint1_linear_2373_6489" x1="184.634" y1="6.97452" x2="332" y2="6.97451" gradientUnits="userSpaceOnUse">
<stop stop-color="#00E0FF"/>
<stop offset="1" stop-color="#00E0FF" stop-opacity="0"/>
</linearGradient>
</defs>
</svg>
