<svg width="64" height="64" viewBox="0 0 64 64" fill="none" xmlns="http://www.w3.org/2000/svg">
<g id="Vector (Stroke)">
<path d="M5.21811 33.0614C6.08944 33.9338 6.08858 35.3473 5.21618 36.2187L4.75838 36.6759C4.36733 37.0665 4.36733 37.6986 4.75838 38.0892C5.15093 38.4812 5.7885 38.4812 6.18105 38.0892L11.2169 33.0594C12.0893 32.1881 13.5029 32.189 14.3742 33.0614C15.2455 33.9338 15.2447 35.3473 14.3723 36.2187L9.33642 41.2484C7.20059 43.3816 3.73884 43.3816 1.603 41.2484C-0.534334 39.1136 -0.534334 35.6514 1.603 33.5167L2.06081 33.0594C2.9332 32.1881 4.34677 32.189 5.21811 33.0614Z" fill="white"/>
<path d="M19.6674 36.027C20.5393 36.8988 20.5393 38.3124 19.6674 39.1843L13.3659 45.4857C12.4941 46.3576 11.0805 46.3576 10.2086 45.4857C9.33678 44.6139 9.33678 43.2003 10.2086 42.3284L16.5101 36.027C17.382 35.1551 18.7955 35.1551 19.6674 36.027Z" fill="white"/>
<path d="M27.9299 44.2795C28.8018 45.1513 28.8018 46.5649 27.9299 47.4368L21.6716 53.6951C20.7997 54.567 19.3861 54.567 18.5143 53.6951C17.6424 52.8232 17.6424 51.4097 18.5143 50.5378L24.7726 44.2795C25.6445 43.4076 27.0581 43.4076 27.9299 44.2795Z" fill="white"/>
<path d="M18.5219 45.4578C19.384 46.3393 19.3683 47.7528 18.4867 48.6149L13.3978 53.5918C12.5163 54.4539 11.1028 54.4382 10.2407 53.5567C9.3786 52.6752 9.39433 51.2617 10.2758 50.3996L15.3648 45.4227C16.2463 44.5606 17.6598 44.5763 18.5219 45.4578Z" fill="white"/>
<path d="M30.828 49.6406C31.6994 50.513 31.6985 51.9265 30.8261 52.7979L25.7903 57.8276C25.3992 58.2182 25.3992 58.8503 25.7903 59.2408C26.1828 59.6329 26.8204 59.6329 27.2129 59.2408L27.6707 58.7836C28.5431 57.9123 29.9567 57.9131 30.828 58.7855C31.6994 59.6579 31.6985 61.0715 30.8261 61.9428L30.3683 62.4001C28.2325 64.5333 24.7707 64.5333 22.6349 62.4001C20.4975 60.2653 20.4975 56.8031 22.6349 54.6684L27.6707 49.6386C28.5431 48.7673 29.9567 48.7682 30.828 49.6406Z" fill="white"/>
<path fill-rule="evenodd" clip-rule="evenodd" d="M49.8364 0.000160842L50.2343 0.000327978L51.8574 0.000323542C54.1004 0.000223828 56.0043 0.000139546 57.5228 0.203445C59.1384 0.419734 60.6483 0.902123 61.8692 2.11789C63.0914 3.33496 63.5776 4.84238 63.7954 6.45559C63.9999 7.96963 63.9998 9.86707 63.9997 12.0994L63.9997 13.7171L63.9998 14.1158C64.0016 16.7977 64.0029 18.7617 63.2541 20.5616C62.5058 22.3606 61.1117 23.7471 59.2059 25.6424L58.9228 25.924L52.1776 32.6408L52.2945 32.8211C53.3092 34.3863 54.1404 35.6683 54.7421 36.777C55.3684 37.9309 55.8239 39.0322 56.0067 40.26C56.2973 42.2127 56.0342 44.2181 55.265 46.0585C54.9716 46.7606 54.4711 47.4821 53.9746 48.1216C53.4512 48.7958 52.8138 49.5271 52.1329 50.2682C50.7787 51.7419 49.1545 53.3593 47.7179 54.7899L47.6969 54.8107L47.4793 55.0275C45.472 57.0263 41.9896 56.3831 40.9155 53.692C40.3235 52.2086 40.0921 51.6392 39.8041 51.1148C39.535 50.6246 39.2261 50.157 38.8806 49.7167C38.5163 49.2525 38.0899 48.8211 36.9941 47.7297L35.7349 46.6271C35.5237 46.6497 35.3096 46.6612 35.0925 46.6612C33.3693 46.6612 31.9593 45.9402 30.6614 44.9542C29.4427 44.0282 28.096 42.6871 26.5103 41.1079L22.7407 37.3542C21.1551 35.7754 19.8082 34.4344 18.8781 33.2204C17.8881 31.9283 17.1603 30.5198 17.1603 28.7951C17.1603 28.5349 17.177 28.2795 17.2095 28.0285L15.163 25.9906C15.0372 25.8653 14.9885 25.8169 14.9407 25.7706C13.9996 24.8585 12.8921 24.133 11.6773 23.633C11.6155 23.6076 11.5517 23.5823 11.3862 23.5168L10.4056 23.1287C7.58759 22.0135 6.82521 18.3764 8.98021 16.2305L9.00101 16.2098C10.4377 14.7792 12.062 13.1618 13.542 11.8133C14.2861 11.1353 15.0205 10.5006 15.6974 9.97953C16.3397 9.48503 17.0631 8.98758 17.7659 8.69633C19.6106 7.93188 21.6195 7.67074 23.5751 7.95939C24.8039 8.14077 25.9072 8.59294 27.0654 9.21628C28.1783 9.81524 29.4655 10.6427 31.0378 11.6534L31.2334 11.7792L37.9891 5.05188L38.2705 4.77149C40.1754 2.87213 41.5667 1.48496 43.3706 0.740889C45.1736 -0.00279758 47.1406 -0.00154973 49.8364 0.000160842ZM48.9437 35.8612C49.7811 37.1563 50.3823 38.1045 50.8178 38.907C51.3115 39.8166 51.5134 40.4011 51.5902 40.9174C51.7574 42.0407 51.61 43.2247 51.1453 44.3368C51.0889 44.4717 50.8917 44.8115 50.4477 45.3834C50.0307 45.9205 49.4849 46.5507 48.845 47.2471C47.6393 48.5592 46.1875 50.012 44.8041 51.39C44.3933 50.3654 44.0934 49.6492 43.7179 48.9655C43.3317 48.2623 42.8887 47.5917 42.3933 46.9603C41.8347 46.2483 41.1956 45.612 40.1934 44.6143L40.0855 44.5068C40.1859 44.4233 40.2859 44.3385 40.3855 44.2526C41.3669 43.4061 42.4659 42.3116 43.7297 41.0531L48.9437 35.8612ZM50.2343 4.46542C46.9688 4.46542 45.9557 4.50466 45.0732 4.86864C44.1918 5.2322 43.4489 5.91637 41.1398 8.21583L25.998 23.2938C24.7046 24.5818 23.7341 25.5498 23.0049 26.381C22.2715 27.2169 21.9191 27.7653 21.7538 28.1759C21.6597 28.4097 21.6254 28.6022 21.6254 28.7951C21.6254 29.1452 21.7359 29.6087 22.4225 30.5048C23.1482 31.452 24.2766 32.5823 25.998 34.2964L26.201 34.4986L29.9606 30.7548C30.8343 29.8848 32.2478 29.8878 33.1179 30.7615C33.9879 31.6352 33.9849 33.0487 33.1112 33.9188L29.3649 37.6492L29.5546 37.8381C31.2758 39.5521 32.4111 40.6759 33.3627 41.3988C34.2623 42.0823 34.7323 42.1961 35.0925 42.1961C35.2765 42.1961 35.4565 42.1658 35.6655 42.0889C36.0712 41.9397 36.619 41.6048 37.4691 40.8715C38.3155 40.1414 39.3035 39.1594 40.6304 37.8381L55.7722 22.7601C58.0825 20.4595 58.7678 19.7211 59.1315 18.8467C59.4948 17.9734 59.5346 16.9708 59.5346 13.7171L59.5346 12.2501C59.5346 9.82567 59.5298 8.23285 59.3705 7.05302C59.22 5.93839 58.9696 5.53177 58.7186 5.28185C58.4663 5.03062 58.0542 4.77951 56.9303 4.62905C55.7432 4.47012 54.1414 4.46542 51.7075 4.46542H50.2343ZM50.8943 13.0466C48.0589 10.2232 43.4658 10.2232 40.6304 13.0466C37.7898 15.8752 37.7898 20.4652 40.6304 23.2938C43.4658 26.1173 48.0589 26.1173 50.8943 23.2938C53.7349 20.4652 53.7349 15.8752 50.8943 13.0466ZM43.781 16.2106C44.8742 15.122 46.6505 15.122 47.7437 16.2106C48.8316 17.294 48.8316 19.0465 47.7437 20.1299C46.6505 21.2185 44.8742 21.2185 43.781 20.1299C42.6931 19.0465 42.6931 17.294 43.781 16.2106ZM27.9938 15.0051C26.7009 14.1763 25.7526 13.5804 24.9494 13.1481C24.0353 12.6562 23.4457 12.4538 22.9231 12.3766C21.7896 12.2093 20.5956 12.357 19.4753 12.8213C19.3376 12.8783 18.9953 13.0756 18.4211 13.5177C17.8815 13.9331 17.2485 14.4766 16.5492 15.1138C15.2375 16.309 13.7858 17.747 12.4075 19.119L13.0293 19.3651L13.0443 19.371C13.1904 19.4288 13.2835 19.4657 13.3764 19.5039C15.1142 20.219 16.6997 21.2574 18.0481 22.5642C18.1204 22.6343 18.1916 22.7051 18.3035 22.8165L19.3156 23.8244C19.4244 23.6943 19.5355 23.565 19.6484 23.4363C20.4883 22.479 21.5648 21.407 22.7995 20.1776L27.9938 15.0051Z" fill="white"/>
</g>
</svg>
