<svg width="857" height="622" viewBox="0 0 857 622" fill="none" xmlns="http://www.w3.org/2000/svg">
<g filter="url(#filter0_b_2373_8216)">
<path d="M0 20C0 8.95429 8.95431 0 20 0L837 0C848.046 0 857 8.9543 857 20V602C857 613.046 848.046 622 837 622L20 622C8.95432 622 0 613.046 0 602V20Z" fill="white" fill-opacity="0.03"/>
<path d="M20 1H837C847.493 1 856 9.50659 856 20V602C856 612.493 847.493 621 837 621L20 621C9.50661 621 1 612.493 1 602V20C1 9.50658 9.50659 1 20 1Z" stroke="url(#paint0_linear_2373_8216)" stroke-opacity="0.3" stroke-width="2"/>
</g>
<defs>
<filter id="filter0_b_2373_8216" x="-200" y="-200" width="1257" height="1022" filterUnits="userSpaceOnUse" color-interpolation-filters="sRGB">
<feFlood flood-opacity="0" result="BackgroundImageFix"/>
<feGaussianBlur in="BackgroundImageFix" stdDeviation="100"/>
<feComposite in2="SourceAlpha" operator="in" result="effect1_backgroundBlur_2373_8216"/>
<feBlend mode="normal" in="SourceGraphic" in2="effect1_backgroundBlur_2373_8216" result="shape"/>
</filter>
<linearGradient id="paint0_linear_2373_8216" x1="-8.03459e-06" y1="71.4768" x2="278.638" y2="322.844" gradientUnits="userSpaceOnUse">
<stop stop-color="#00E0FF"/>
<stop offset="1" stop-color="#999999" stop-opacity="0"/>
</linearGradient>
</defs>
</svg>
