<?xml version="1.0" encoding="UTF-8"?>
<svg id="Layer_1" xmlns="http://www.w3.org/2000/svg" version="1.1" viewBox="0 0 32 32">
  <!-- Generator: Adobe Illustrator 29.1.0, SVG Export Plug-In . SVG Version: 2.1.0 Build 142)  -->
  <defs>
    <style>
      .st0, .st1 {
        fill: #fff;
      }

      .st1 {
        isolation: isolate;
        opacity: .5;
      }
    </style>
  </defs>
  <path class="st0" d="M8.7,1.1c.6-1.5,2.8-1.5,3.4,0l1.9,4.7c.2.5.6.8,1,1l4.7,1.9c1.5.6,1.5,2.8,0,3.4l-4.7,1.9c-.5.2-.8.6-1,1l-1.9,4.7c-.6,1.5-2.8,1.5-3.4,0l-1.9-4.7c-.2-.5-.6-.8-1-1l-4.7-1.9c-1.5-.6-1.5-2.8,0-3.4l4.7-1.9c.5-.2.8-.6,1-1l1.9-4.7Z"/>
  <path class="st1" d="M23.9,18.2c.3-.8,1.5-.8,1.8,0l1.4,3.7c.1.3.3.5.6.6l3.7,1.4c.8.3.8,1.5,0,1.8l-3.7,1.4c-.3.1-.5.3-.6.6l-1.4,3.7c-.3.8-1.5.8-1.8,0l-1.4-3.7c-.1-.3-.3-.5-.6-.6l-3.7-1.4c-.8-.3-.8-1.5,0-1.8l3.7-1.4c.3-.1.5-.3.6-.6l1.4-3.7Z"/>
</svg>