<svg width="28" height="34" viewBox="0 0 28 34" fill="none" xmlns="http://www.w3.org/2000/svg">
<path d="M12.6188 2.98828L13.6149 0H7.74609L8.74225 2.98828H12.6188Z" fill="#8DB5BB"/>
<path d="M27.3216 11.3957L25.2488 9.32297C25.062 9.13617 24.8087 9.03125 24.5444 9.03125H17.4009C17.1367 9.03125 16.8833 9.13617 16.6965 9.32297L14.6238 11.3957C14.437 11.5825 14.332 11.8359 14.332 12.1V15.1603C14.332 19.3346 16.788 23.1026 20.5726 24.7991C20.8266 24.913 21.1187 24.913 21.3726 24.7991C25.1573 23.1025 27.6133 19.3346 27.6133 15.1603V12.1C27.6133 11.8359 27.5084 11.5825 27.3216 11.3957ZM24.4944 15.4371L20.7379 19.1935C20.3489 19.5825 19.7182 19.5825 19.3292 19.1935L17.451 17.3153C17.062 16.9263 17.062 16.2956 17.451 15.9066C17.84 15.5176 18.4707 15.5176 18.8597 15.9066L20.0335 17.0805L23.0857 14.0283C23.4747 13.6393 24.1054 13.6393 24.4944 14.0283C24.8834 14.4173 24.8834 15.0481 24.4944 15.4371Z" fill="#8DB5BB"/>
<path d="M12.3398 15.1603V12.1001C12.3398 11.3019 12.6507 10.5516 13.2151 9.9871L15.2878 7.91436C15.8523 7.34998 16.6027 7.03913 17.4009 7.03913H20.9727V2.98828C20.9727 1.34054 19.6321 0 17.9844 0H15.714L14.2809 4.29934C14.1453 4.70614 13.7647 4.98047 13.3359 4.98047H8.02344C7.59465 4.98047 7.21408 4.70614 7.07848 4.29934L5.64536 0H3.375C1.72726 0 0.386719 1.34054 0.386719 2.98828V31.0117C0.386719 32.6595 1.72726 34 3.375 34H17.9844C19.6321 34 20.9727 32.6595 20.9727 31.0117V26.8767C20.5508 26.8767 20.1421 26.7894 19.7577 26.617C15.2516 24.5971 12.3398 20.1 12.3398 15.1603ZM12.6719 31.0117H8.6875C8.13739 31.0117 7.69141 30.5657 7.69141 30.0156C7.69141 29.4655 8.13739 29.0195 8.6875 29.0195H12.6719C13.222 29.0195 13.668 29.4655 13.668 30.0156C13.668 30.5657 13.222 31.0117 12.6719 31.0117Z" fill="#8DB5BB"/>
</svg>
