<?xml version="1.0" encoding="UTF-8"?>
<svg id="Layer_1" xmlns="http://www.w3.org/2000/svg" version="1.1" viewBox="0 0 32 32">
  <!-- Generator: Adobe Illustrator 29.1.0, SVG Export Plug-In . SVG Version: 2.1.0 Build 142)  -->
  <defs>
    <style>
      .st0 {
        display: none;
        fill: none;
      }

      .st1 {
        fill: #50af00;
      }
     
    </style>
  </defs>
  <rect class="st0" x="2.9" y="6" width="18" height="18"/>
  <path class="st1" d="M16,32C7.2,32,0,24.8,0,16S7.2,0,16,0s16,7.2,16,16-7.2,16-16,16ZM10.5,16.9v7.1h6.5c1.2,0,2.3-.2,3.1-.6.9-.4,1.6-1,2.2-1.7.6-.7,1-1.6,1.2-2.5.3-1,.4-2,.4-3.1,0-1.1-.1-2.1-.4-3.1-.3-1-.7-1.8-1.2-2.5-.6-.7-1.3-1.3-2.2-1.7-.9-.4-1.9-.6-3.1-.6h-6.5v6.6h-1.5v2.3h1.5ZM13.2,14.6v-4.3h2.7c1.1,0,2,.1,2.6.4.7.3,1.2.7,1.6,1.2.4.5.7,1.2.8,1.8.1.7.2,1.4.2,2.3,0,.8,0,1.5-.2,2.3-.1.7-.4,1.3-.8,1.8-.4.5-.9.9-1.6,1.2-.7.3-1.6.4-2.6.4h-2.7v-4.8h4.3v-2.3h-4.3Z"/>
</svg>