<svg width="234" height="241" viewBox="0 0 234 241" fill="none" xmlns="http://www.w3.org/2000/svg">
<mask id="mask0_2796_4262" style="mask-type:alpha" maskUnits="userSpaceOnUse" x="0" y="89" width="65" height="52">
<path d="M25 96.1924V96.1924C26.6569 96.1924 28 97.5355 28 99.1924V131.15C28 132.807 26.6569 134.15 25 134.15V134.15V96.1924Z" fill="#00E0FF"/>
<path d="M65 114.971C65 129.314 50.4493 140.942 32.5 140.942C14.5507 140.942 0 129.314 0 114.971C0 100.628 14.5507 89 32.5 89C50.4493 89 65 100.628 65 114.971Z" fill="#00E0FF"/>
</mask>
<g mask="url(#mask0_2796_4262)">
<rect x="25" y="0.194336" width="136" height="256" fill="#00E0FF"/>
</g>
<circle cx="89" cy="119.194" r="18" stroke="#00E0FF" stroke-width="2"/>
<circle cx="228.615" cy="153.809" r="4.6145" stroke="#00E0FF"/>
<circle cx="228.615" cy="153.809" r="3.57252" stroke="#00E0FF"/>
<path d="M67.3763 108.272C65.9973 110.995 65.1995 113.975 65.0329 117.022C65.0288 117.097 65.0862 117.16 65.1606 117.163V117.163C65.235 117.167 65.2983 117.11 65.3023 117.035C65.4671 114.026 66.2551 111.083 67.617 108.394C68.9992 105.664 70.9415 103.257 73.3171 101.329C75.6927 99.4008 78.4482 97.9953 81.4037 97.2042C84.3158 96.4247 87.3576 96.2589 90.3362 96.7167C90.4099 96.728 90.4791 96.6779 90.4908 96.6044V96.6044C90.5026 96.5308 90.4525 96.4616 90.3789 96.4503C87.3628 95.9865 84.2827 96.1543 81.3339 96.9436C78.3418 97.7445 75.5521 99.1674 73.1471 101.119C70.7421 103.071 68.7757 105.509 67.3763 108.272Z" stroke="#00E0FF" stroke-width="2"/>
<path d="M100.13 132.366L121.458 153.694H224" stroke="#00E0FF" stroke-width="2"/>
</svg>
