<svg width="30" height="30" viewBox="0 0 30 30" fill="none" xmlns="http://www.w3.org/2000/svg">
<path d="M16.5494 10.2021C16.5494 9.3207 15.8328 8.60352 14.9508 8.60352C14.1346 8.60352 13.418 9.35052 13.418 10.2021V12.2648H16.5488L16.5494 10.2021Z" fill="#8DB5BB"/>
<path d="M18.8045 14.5137H11.1652C11.1207 14.5137 11.0938 14.5407 11.0938 14.5857V20.0987C11.0938 20.7732 11.6855 21.3655 12.3599 21.3655H17.6081C18.2825 21.3655 18.8743 20.7732 18.8743 20.0987V14.5857C18.8743 14.5412 18.8472 14.5137 18.8045 14.5137ZM15.6809 19.0311H14.2207C13.5997 19.0311 13.0957 18.5271 13.0957 17.9061C13.0957 17.2851 13.5997 16.7811 14.2207 16.7811H15.6809C16.3019 16.7811 16.8059 17.2851 16.8059 17.9061C16.8059 18.5271 16.3019 19.0311 15.6809 19.0311Z" fill="#8DB5BB"/>
<path d="M23.12 0.373047H6.84572C3.25809 0.373047 0.339844 3.29242 0.339844 6.88061V23.1571C0.339844 26.7082 3.25809 29.596 6.84572 29.596H23.12C26.7082 29.596 29.6275 26.7076 29.6275 23.1571V6.88061C29.6275 3.29242 26.7076 0.373047 23.12 0.373047ZM21.1231 20.0994C21.1231 22.0057 19.5132 23.6161 17.6069 23.6161H12.3588C10.4525 23.6161 8.84259 22.0057 8.84259 20.0994V14.5863C8.84259 13.306 9.88434 12.2643 11.164 12.2643H11.1674V10.2016C11.1674 8.11586 12.8993 6.35298 14.9502 6.35298C17.072 6.35298 18.7988 8.0793 18.7988 10.2016V12.2643H18.8039C20.083 12.2643 21.1237 13.306 21.1237 14.5863L21.1231 20.0994Z" fill="#8DB5BB"/>
</svg>
