<svg width="203" height="17" viewBox="0 0 203 17" fill="none" xmlns="http://www.w3.org/2000/svg">
<path d="M110.026 10L109.69 10.371L109.833 10.5L110.026 10.5L110.026 10ZM105.598 6L105.933 5.629L105.791 5.5L105.598 5.5L105.598 6ZM71.2863 6L71.2863 5.5L71.0516 5.5L70.9016 5.68064L71.2863 6ZM67.9658 10L67.9658 10.5L68.2006 10.5L68.3505 10.3194L67.9658 10ZM30.3333 7.33334C28.8606 7.33334 27.6667 8.52725 27.6667 10C27.6667 11.4728 28.8606 12.6667 30.3333 12.6667C31.8061 12.6667 33 11.4728 33 10C33 8.52725 31.8061 7.33334 30.3333 7.33334ZM203 9.5L110.026 9.5L110.026 10.5L203 10.5L203 9.5ZM110.361 9.629L105.933 5.629L105.263 6.37101L109.69 10.371L110.361 9.629ZM105.598 5.5L71.2863 5.5L71.2863 6.5L105.598 6.5L105.598 5.5ZM70.9016 5.68064L67.5811 9.68064L68.3505 10.3194L71.6711 6.31937L70.9016 5.68064ZM67.9658 9.5L30.3333 9.50001L30.3333 10.5L67.9658 10.5L67.9658 9.5Z" fill="url(#paint0_linear_2373_4604)"/>
<path d="M6 1L1 6" stroke="#00E0FF"/>
<path d="M16 11L11 16" stroke="#00E0FF"/>
<path d="M1 11L6 16" stroke="#00E0FF"/>
<path d="M11 1L16 6" stroke="#00E0FF"/>
<circle cx="8.5" cy="8.5" r="4" stroke="#00E0FF"/>
<defs>
<linearGradient id="paint0_linear_2373_4604" x1="30.3333" y1="8.00001" x2="203" y2="8" gradientUnits="userSpaceOnUse">
<stop stop-color="#00E0FF"/>
<stop offset="1" stop-color="#00E0FF" stop-opacity="0"/>
</linearGradient>
</defs>
</svg>
