<svg width="1580" height="825" viewBox="0 0 1580 825" fill="none" xmlns="http://www.w3.org/2000/svg">
<g opacity="0.74" filter="url(#filter0_b_2422_4200)">
<mask id="path-1-inside-1_2422_4200" fill="white">
<path fill-rule="evenodd" clip-rule="evenodd" d="M1553.62 818.753L1573.83 799.396C1577.77 795.623 1580 790.406 1580 784.952V566.964C1580 561.514 1577.78 556.3 1573.84 552.528L1561.64 540.825C1553.55 533.068 1553.41 520.179 1561.33 512.252L1574.15 499.431C1577.89 495.68 1580 490.595 1580 485.293L1580 41.4001C1580 36.098 1577.89 31.0128 1574.15 27.2624L1552.76 5.8623C1549.01 2.10889 1543.92 -4.64204e-07 1538.61 0L983.464 4.85635e-05C977.802 4.90587e-05 972.406 2.39928 968.614 6.60265L950.647 26.517C946.855 30.7204 941.459 33.1196 935.797 33.1196L48.7418 33.1197C43.4353 33.1197 38.3463 35.2286 34.5952 38.9821L5.85339 67.7421C2.10535 71.4924 -4.63235e-07 76.5776 0 81.8798L1.79184e-05 286.972C1.84318e-05 292.848 2.58437 298.427 7.06691 302.227L15.8001 309.631C24.9823 317.415 25.2573 331.488 16.3861 339.625L6.50124 348.692C2.35964 352.491 0.0074704 357.857 0.0204103 363.477L0.900449 746.137C0.912534 751.423 3.01703 756.489 6.75372 760.228L34.5953 788.088C38.3464 791.841 43.4354 793.95 48.7419 793.95H220.185C225.491 793.95 230.58 796.059 234.331 799.812L252.954 818.447C256.705 822.201 261.794 824.31 267.101 824.31L1539.79 824.31C1544.94 824.31 1549.9 822.319 1553.62 818.753Z"/>
</mask>
<path fill-rule="evenodd" clip-rule="evenodd" d="M1553.62 818.753L1573.83 799.396C1577.77 795.623 1580 790.406 1580 784.952V566.964C1580 561.514 1577.78 556.3 1573.84 552.528L1561.64 540.825C1553.55 533.068 1553.41 520.179 1561.33 512.252L1574.15 499.431C1577.89 495.68 1580 490.595 1580 485.293L1580 41.4001C1580 36.098 1577.89 31.0128 1574.15 27.2624L1552.76 5.8623C1549.01 2.10889 1543.92 -4.64204e-07 1538.61 0L983.464 4.85635e-05C977.802 4.90587e-05 972.406 2.39928 968.614 6.60265L950.647 26.517C946.855 30.7204 941.459 33.1196 935.797 33.1196L48.7418 33.1197C43.4353 33.1197 38.3463 35.2286 34.5952 38.9821L5.85339 67.7421C2.10535 71.4924 -4.63235e-07 76.5776 0 81.8798L1.79184e-05 286.972C1.84318e-05 292.848 2.58437 298.427 7.06691 302.227L15.8001 309.631C24.9823 317.415 25.2573 331.488 16.3861 339.625L6.50124 348.692C2.35964 352.491 0.0074704 357.857 0.0204103 363.477L0.900449 746.137C0.912534 751.423 3.01703 756.489 6.75372 760.228L34.5953 788.088C38.3464 791.841 43.4354 793.95 48.7419 793.95H220.185C225.491 793.95 230.58 796.059 234.331 799.812L252.954 818.447C256.705 822.201 261.794 824.31 267.101 824.31L1539.79 824.31C1544.94 824.31 1549.9 822.319 1553.62 818.753Z" fill="white" fill-opacity="0.03"/>
<path d="M1573.83 799.396L1575.22 800.84L1575.22 800.84L1573.83 799.396ZM1553.62 818.753L1552.24 817.309L1552.24 817.309L1553.62 818.753ZM1573.84 552.528L1575.23 551.085L1575.23 551.085L1573.84 552.528ZM1561.64 540.825L1560.25 542.268L1560.25 542.268L1561.64 540.825ZM1561.33 512.252L1559.92 510.838L1559.92 510.838L1561.33 512.252ZM1574.15 499.431L1575.56 500.845L1575.56 500.845L1574.15 499.431ZM1580 485.293L1582 485.293L1582 485.293L1580 485.293ZM1580 41.4001L1578 41.4001L1578 41.4001L1580 41.4001ZM1574.15 27.2624L1572.73 28.6762L1572.73 28.6762L1574.15 27.2624ZM1552.76 5.8623L1554.17 4.44854L1554.17 4.44853L1552.76 5.8623ZM1538.61 0L1538.61 2L1538.61 0ZM983.464 4.85635e-05L983.464 2.00005L983.464 4.85635e-05ZM968.614 6.60265L970.099 7.94239L970.099 7.94239L968.614 6.60265ZM950.647 26.517L949.162 25.1773L949.162 25.1773L950.647 26.517ZM935.797 33.1196L935.797 31.1196L935.797 31.1196L935.797 33.1196ZM48.7418 33.1197L48.7418 35.1197L48.7418 35.1197L48.7418 33.1197ZM34.5952 38.9821L36.0099 40.3958L36.0099 40.3958L34.5952 38.9821ZM5.85339 67.7421L7.26804 69.1559L7.26805 69.1558L5.85339 67.7421ZM0 81.8798L2 81.8798L0 81.8798ZM1.79184e-05 286.972L2.00002 286.972L1.79184e-05 286.972ZM7.06691 302.227L8.36023 300.702L8.36021 300.702L7.06691 302.227ZM15.8001 309.631L14.5068 311.157L14.5068 311.157L15.8001 309.631ZM16.3861 339.625L15.0342 338.151L15.0342 338.151L16.3861 339.625ZM6.50124 348.692L7.85315 350.166L7.85317 350.166L6.50124 348.692ZM0.0204103 363.477L2.02041 363.473L2.02041 363.473L0.0204103 363.477ZM0.900449 746.137L2.90044 746.132L2.90044 746.132L0.900449 746.137ZM6.75372 760.228L5.33906 761.642L5.33906 761.642L6.75372 760.228ZM34.5953 788.088L36.0099 786.674L36.0099 786.674L34.5953 788.088ZM234.331 799.812L235.746 798.399L235.746 798.399L234.331 799.812ZM252.954 818.447L254.369 817.033L254.369 817.033L252.954 818.447ZM267.101 824.31L267.101 826.31H267.101L267.101 824.31ZM1539.79 824.31L1539.79 822.31H1539.79L1539.79 824.31ZM1572.45 797.951L1552.24 817.309L1555.01 820.198L1575.22 800.84L1572.45 797.951ZM1578 784.952C1578 789.86 1576 794.556 1572.45 797.951L1575.22 800.84C1579.55 796.69 1582 790.951 1582 784.952H1578ZM1578 566.964V784.952H1582V566.964H1578ZM1572.46 553.972C1576 557.367 1578 562.059 1578 566.964H1582C1582 560.969 1579.55 555.234 1575.23 551.085L1572.46 553.972ZM1560.25 542.268L1572.46 553.972L1575.23 551.085L1563.02 539.381L1560.25 542.268ZM1559.92 510.838C1551.2 519.558 1551.36 533.736 1560.25 542.268L1563.02 539.381C1555.74 532.4 1555.62 520.8 1562.75 513.665L1559.92 510.838ZM1572.73 498.017L1559.92 510.838L1562.75 513.665L1575.56 500.845L1572.73 498.017ZM1578 485.293C1578 490.065 1576.11 494.642 1572.73 498.017L1575.56 500.845C1579.68 496.719 1582 491.126 1582 485.293H1578ZM1578 41.4001L1578 485.293L1582 485.293L1582 41.4001L1578 41.4001ZM1572.73 28.6762C1576.11 32.0515 1578 36.6282 1578 41.4001H1582C1582 35.5678 1579.68 29.9741 1575.56 25.8487L1572.73 28.6762ZM1551.35 7.27607L1572.73 28.6762L1575.56 25.8487L1554.17 4.44854L1551.35 7.27607ZM1538.61 2C1543.39 2 1547.97 3.898 1551.35 7.27608L1554.17 4.44853C1550.05 0.319775 1544.45 -2 1538.61 -2L1538.61 2ZM983.464 2.00005L1538.61 2L1538.61 -2L983.464 -1.99995L983.464 2.00005ZM970.099 7.94239C973.512 4.15936 978.368 2.00005 983.464 2.00005L983.464 -1.99995C977.236 -1.99995 971.301 0.639205 967.129 5.26291L970.099 7.94239ZM952.132 27.8568L970.099 7.94239L967.129 5.26291L949.162 25.1773L952.132 27.8568ZM935.797 35.1196C942.025 35.1196 947.96 32.4805 952.132 27.8568L949.162 25.1773C945.749 28.9603 940.893 31.1196 935.797 31.1196V35.1196ZM48.7418 35.1197L935.797 35.1196L935.797 31.1196L48.7418 31.1197L48.7418 35.1197ZM36.0099 40.3958C39.3859 37.0177 43.966 35.1197 48.7418 35.1197V31.1197C42.9046 31.1197 37.3068 33.4395 33.1805 37.5683L36.0099 40.3958ZM7.26805 69.1558L36.0099 40.3958L33.1806 37.5683L4.43873 66.3283L7.26805 69.1558ZM2 81.8798C2 77.1078 3.89482 72.5312 7.26804 69.1559L4.43874 66.3283C0.315875 70.4537 -2 76.0475 -2 81.8798L2 81.8798ZM2.00002 286.972L2 81.8798L-2 81.8798L-1.99998 286.972L2.00002 286.972ZM8.36021 300.702C4.32594 297.282 2.00002 292.261 2.00002 286.972L-1.99998 286.972C-1.99998 293.436 0.842803 299.573 5.77362 303.753L8.36021 300.702ZM17.0934 308.105L8.36023 300.702L5.7736 303.753L14.5068 311.157L17.0934 308.105ZM17.738 341.099C27.4964 332.148 27.1939 316.668 17.0934 308.105L14.5068 311.157C22.7708 318.162 23.0183 330.828 15.0342 338.151L17.738 341.099ZM7.85317 350.166L17.7381 341.099L15.0342 338.151L5.14932 347.219L7.85317 350.166ZM2.02041 363.473C2.00876 358.415 4.12571 353.585 7.85315 350.166L5.14934 347.219C0.593577 351.397 -1.99382 357.3 -1.97958 363.482L2.02041 363.473ZM2.90044 746.132L2.02041 363.473L-1.97958 363.482L-1.09955 746.141L2.90044 746.132ZM8.16838 758.815C4.80536 755.45 2.91132 750.89 2.90044 746.132L-1.09955 746.141C-1.08625 751.956 1.2287 757.529 5.33906 761.642L8.16838 758.815ZM36.0099 786.674L8.16838 758.815L5.33906 761.642L33.1806 789.501L36.0099 786.674ZM48.7419 791.95C43.966 791.95 39.3859 790.052 36.0099 786.674L33.1806 789.501C37.3068 793.63 42.9047 795.95 48.7419 795.95V791.95ZM220.185 791.95H48.7419V795.95H220.185V791.95ZM235.746 798.399C231.62 794.27 226.022 791.95 220.185 791.95V795.95C224.96 795.95 229.54 797.848 232.916 801.226L235.746 798.399ZM254.369 817.033L235.746 798.399L232.916 801.226L251.54 819.861L254.369 817.033ZM267.101 822.31C262.325 822.31 257.745 820.412 254.369 817.033L251.54 819.861C255.666 823.99 261.264 826.31 267.101 826.31V822.31ZM1539.79 822.31L267.101 822.31L267.101 826.31L1539.79 826.31L1539.79 822.31ZM1552.24 817.309C1548.89 820.518 1544.43 822.31 1539.79 822.31V826.31C1545.46 826.31 1550.91 824.12 1555.01 820.198L1552.24 817.309Z" fill="url(#paint0_linear_2422_4200)" fill-opacity="0.51" mask="url(#path-1-inside-1_2422_4200)"/>
</g>
<defs>
<filter id="filter0_b_2422_4200" x="-200" y="-200" width="1980" height="1224.31" filterUnits="userSpaceOnUse" color-interpolation-filters="sRGB">
<feFlood flood-opacity="0" result="BackgroundImageFix"/>
<feGaussianBlur in="BackgroundImageFix" stdDeviation="100"/>
<feComposite in2="SourceAlpha" operator="in" result="effect1_backgroundBlur_2422_4200"/>
<feBlend mode="normal" in="SourceGraphic" in2="effect1_backgroundBlur_2422_4200" result="shape"/>
</filter>
<linearGradient id="paint0_linear_2422_4200" x1="-1.48129e-05" y1="94.7251" x2="361.852" y2="548.851" gradientUnits="userSpaceOnUse">
<stop stop-color="#00E0FF"/>
<stop offset="1" stop-color="#999999" stop-opacity="0"/>
</linearGradient>
</defs>
</svg>
