<svg width="4" height="161" viewBox="0 0 4 161" fill="none" xmlns="http://www.w3.org/2000/svg">
<rect width="1.89238" height="70.6299" transform="matrix(-1 0 0 1 1.89258 0)" fill="#00E0FF"/>
<rect width="1.89238" height="14.126" transform="matrix(-1 0 0 1 3.78418 32.1758)" fill="#00E0FF"/>
<rect width="1.89238" height="70.6299" transform="matrix(-1 0 0 1 1.89258 89.4619)" fill="#00E0FF"/>
<rect width="1.89238" height="3.1391" transform="matrix(-1 0 0 1 1.89258 72.1973)" fill="#00E0FF"/>
<rect width="1.89238" height="3.1391" transform="matrix(-1 0 0 1 1.89258 84.7529)" fill="#00E0FF"/>
<rect width="1.89238" height="2.35433" transform="matrix(-1 0 0 1 1.89258 76.9072)" fill="#00E0FF"/>
<rect width="1.89238" height="2.35433" transform="matrix(-1 0 0 1 1.89258 80.8301)" fill="#00E0FF"/>
<rect width="1.89238" height="14.126" transform="matrix(-1 0 0 1 3.78418 121.639)" fill="#00E0FF"/>
</svg>
