<svg width="77" height="53" viewBox="0 0 77 53" fill="none" xmlns="http://www.w3.org/2000/svg">
<path fill-rule="evenodd" clip-rule="evenodd" d="M5.11892 42.0458H46.0146C43.5082 31.5383 51.3947 21.3379 62.2157 21.3379C63.8343 21.3379 65.3985 21.5711 66.8781 22.0046V9.09105L38.3483 20.7747C35.0626 22.1202 31.8156 22.1202 28.53 20.7747L0 9.09089V36.8918C0 39.7262 2.30358 42.0458 5.11892 42.0458ZM62.2157 23.2288C70.3808 23.2288 77 29.8933 77 38.1144C77 46.3355 70.3808 53 62.2157 53C54.0506 53 47.4314 46.3355 47.4314 38.1144C47.4314 29.8933 54.0506 23.2288 62.2157 23.2288ZM66.8781 7.04965L37.6407 19.0231C34.8078 20.1832 32.0704 20.1832 29.2376 19.0231L0 7.04965V4.61872C0 2.07843 2.06428 0 4.58728 0H62.2907C64.8137 0 66.878 2.07843 66.878 4.61872L66.8781 7.04965ZM56.0014 35.6783C56.368 35.3091 56.9625 35.3091 57.3292 35.6783C57.6959 36.0475 57.6957 36.6461 57.3292 37.0151L56.2374 38.1144L57.3292 39.2136C57.6957 39.5829 57.6957 40.1815 57.3292 40.5505C56.9627 40.9196 56.368 40.9197 56.0014 40.5505L54.9097 39.4513L53.8179 40.5505C53.4514 40.9197 52.8568 40.9197 52.4901 40.5505C52.1234 40.1813 52.1236 39.5829 52.4901 39.2136L53.5819 38.1144L52.4901 37.0151C52.1236 36.6459 52.1236 36.0473 52.4901 35.6783C52.8566 35.3092 53.4514 35.3091 53.8179 35.6783L54.9097 36.7775L56.0014 35.6783ZM71.941 39.2136C72.3077 39.5829 72.3077 40.1815 71.941 40.5505C71.5745 40.9197 70.9799 40.9197 70.6132 40.5505L69.5215 39.4513L68.4297 40.5505C68.063 40.9197 67.4685 40.9197 67.1019 40.5505C66.7352 40.1813 66.7352 39.5829 67.1019 39.2136L68.1937 38.1144L67.1019 37.0151C66.7352 36.6459 66.7352 36.0473 67.1019 35.6783C67.4685 35.3091 68.0632 35.3091 68.4297 35.6783L69.5215 36.7775L70.6132 35.6783C70.9799 35.3091 71.5745 35.3091 71.941 35.6783C72.3077 36.0475 72.3077 36.6461 71.941 37.0151L70.8493 38.1144L71.941 39.2136ZM64.6351 39.2136C65.0018 39.5829 65.0018 40.1815 64.6351 40.5505C64.2686 40.9197 63.674 40.9197 63.3073 40.5505L62.2157 39.4513L61.1239 40.5505C60.7573 40.9197 60.1627 40.9197 59.7962 40.5505C59.4295 40.1813 59.4295 39.5829 59.7962 39.2136L60.8879 38.1144L59.7962 37.0151C59.4295 36.6459 59.4295 36.0473 59.7962 35.6783C60.1627 35.3091 60.7574 35.3091 61.1239 35.6783L62.2157 36.7775L63.3073 35.6783C63.6739 35.3091 64.2684 35.3091 64.6351 35.6783C65.0018 36.0475 65.0018 36.6461 64.6351 37.0151L63.5433 38.1144L64.6351 39.2136Z" fill="#00E0FF"/>
</svg>
