<svg width="88" height="88" viewBox="0 0 88 88" fill="none" xmlns="http://www.w3.org/2000/svg">
<path d="M63.1869 56.2027C62.5774 52.0612 60.5037 48.2754 57.3419 45.532C54.1801 42.7886 50.1396 41.2694 45.9536 41.25H42.0523C37.8662 41.2694 33.8258 42.7886 30.664 45.532C27.5022 48.2754 25.4284 52.0612 24.8189 56.2027L22.9489 69.278C22.8892 69.7007 22.9287 70.1314 23.0642 70.5362C23.1998 70.9409 23.4277 71.3086 23.7299 71.61C24.4633 72.3433 28.9623 76.0833 44.0066 76.0833C59.0509 76.0833 63.5389 72.358 64.2833 71.61C64.5855 71.3086 64.8134 70.9409 64.949 70.5362C65.0845 70.1314 65.124 69.7007 65.0643 69.278L63.1869 56.2027Z" fill="#00E0FF"/>
<path d="M27.7217 43.2671C24.178 46.534 21.8723 50.9252 21.1951 55.6971L19.8384 65.0838C8.9484 65.0105 5.64841 61.0505 5.09841 60.2438C4.88581 59.9507 4.73409 59.6181 4.65222 59.2654C4.57035 58.9127 4.55998 58.5472 4.62174 58.1905L5.42841 53.6438C5.84869 51.2676 6.83575 49.0278 8.30591 47.1143C9.77606 45.2008 11.686 43.67 13.8736 42.6517C16.0613 41.6334 18.4623 41.1577 20.873 41.2648C23.2837 41.3719 25.633 42.0588 27.7217 43.2671Z" fill="#005B67"/>
<path d="M83.3812 58.1905C83.443 58.5472 83.4326 58.9127 83.3508 59.2654C83.2689 59.6181 83.1172 59.9507 82.9046 60.2438C82.3546 61.0505 79.0546 65.0105 68.1646 65.0838L66.8079 55.6971C66.1307 50.9252 63.825 46.534 60.2812 43.2671C62.37 42.0588 64.7193 41.3719 67.13 41.2648C69.5407 41.1577 71.9417 41.6334 74.1293 42.6517C76.317 43.67 78.2269 45.2008 79.6971 47.1143C81.1672 49.0278 82.1543 51.2676 82.5746 53.6438L83.3812 58.1905Z" fill="#008C9F"/>
<path d="M28.342 35.2C27.4191 36.509 26.1938 37.5758 24.7702 38.31C23.3467 39.0441 21.767 39.4237 20.1654 39.4167C18.5676 39.4167 16.9928 39.037 15.5706 38.3089C14.1484 37.5809 12.9195 36.5253 11.9853 35.2292C11.0511 33.933 10.4383 32.4334 10.1974 30.854C9.95641 29.2745 10.0942 27.6604 10.5995 26.1447C11.1047 24.629 11.9629 23.255 13.1034 22.136C14.2438 21.017 15.6338 20.185 17.1588 19.7087C18.6839 19.2323 20.3003 19.1251 21.8749 19.396C23.4495 19.6669 24.9372 20.308 26.2154 21.2667C25.8477 22.7044 25.6629 24.1827 25.6654 25.6667C25.6682 29.0295 26.594 32.3271 28.342 35.2Z" fill="#005B67"/>
<path d="M77.9162 29.3333C77.9172 30.6578 77.6571 31.9694 77.1507 33.1932C76.6443 34.417 75.9016 35.529 74.9651 36.4655C74.0285 37.402 72.9166 38.1447 71.6928 38.6511C70.469 39.1575 69.1573 39.4176 67.8329 39.4167C66.2313 39.4237 64.6516 39.0441 63.228 38.31C61.8045 37.5759 60.5792 36.509 59.6562 35.2C61.4043 32.3271 62.3301 29.0295 62.3329 25.6667C62.3353 24.1827 62.1506 22.7044 61.7829 21.2667C63.281 20.1431 65.0623 19.4589 66.9274 19.2907C68.7924 19.1226 70.6674 19.4771 72.3423 20.3145C74.0172 21.152 75.4258 22.4393 76.4103 24.0322C77.3948 25.6251 77.9162 27.4607 77.9162 29.3333Z" fill="#008C9F"/>
<path d="M44 39.416C51.5939 39.416 57.75 33.2599 57.75 25.666C57.75 18.0721 51.5939 11.916 44 11.916C36.4061 11.916 30.25 18.0721 30.25 25.666C30.25 33.2599 36.4061 39.416 44 39.416Z" fill="#00E0FF"/>
</svg>
