<svg width="151" height="8" viewBox="0 0 151 8" fill="none" xmlns="http://www.w3.org/2000/svg">
<path d="M79.3508 4.68146L79.686 5.05246L79.5433 5.18146L79.3508 5.18146L79.3508 4.68146ZM83.1294 1.26758L82.7943 0.89657L82.937 0.767576L83.1294 0.767575L83.1294 1.26758ZM112.414 1.26757L112.414 0.767575L112.648 0.767575L112.798 0.948211L112.414 1.26757ZM115.248 4.68145L115.248 5.18145L115.013 5.18145L114.863 5.00082L115.248 4.68145ZM147.366 2.01479C148.839 2.01479 150.032 3.20869 150.032 4.68145C150.032 6.15421 148.839 7.34812 147.366 7.34812C145.893 7.34812 144.699 6.15421 144.699 4.68145C144.699 3.20869 145.893 2.01479 147.366 2.01479ZM1.76273e-07 4.18146L79.3508 4.18146L79.3508 5.18146L2.36767e-07 5.18146L1.76273e-07 4.18146ZM79.0156 4.31045L82.7943 0.89657L83.4646 1.63858L79.686 5.05246L79.0156 4.31045ZM83.1294 0.767575L112.414 0.767575L112.414 1.76757L83.1294 1.76758L83.1294 0.767575ZM112.798 0.948211L115.632 4.36209L114.863 5.00082L112.029 1.58694L112.798 0.948211ZM115.248 4.18145L147.366 4.18145L147.366 5.18145L115.248 5.18145L115.248 4.18145Z" fill="url(#paint0_linear_4254_11621)"/>
<defs>
<linearGradient id="paint0_linear_4254_11621" x1="1.0326e-07" y1="2.97452" x2="147.366" y2="2.97451" gradientUnits="userSpaceOnUse">
<stop stop-color="#00E0FF" stop-opacity="0"/>
<stop offset="1" stop-color="#00E0FF"/>
</linearGradient>
</defs>
</svg>
