<svg width="32" height="32" viewBox="0 0 32 32" fill="none" xmlns="http://www.w3.org/2000/svg">
<g id="Rectangle 466" filter="url(#filter0_b_4254_12340)">
<path d="M0 3C0 1.34315 1.34315 0 3 0H24.3574C25.153 0 25.9161 0.316071 26.4787 0.87868L31.1213 5.52132C31.6839 6.08393 32 6.84699 32 7.64264V29C32 30.6569 30.6569 32 29 32H7.64264C6.84699 32 6.08393 31.6839 5.52132 31.1213L0.87868 26.4787C0.316071 25.9161 0 25.153 0 24.3574V3Z" fill="#D9D9D9" fill-opacity="0.03"/>
<path d="M0.25 3C0.25 1.48122 1.48122 0.25 3 0.25H24.3574C25.0867 0.25 25.7862 0.539731 26.3019 1.05546L30.9445 5.6981C31.4603 6.21382 31.75 6.9133 31.75 7.64264V29C31.75 30.5188 30.5188 31.75 29 31.75H7.64264C6.9133 31.75 6.21382 31.4603 5.6981 30.9445L1.05546 26.3019C0.539731 25.7862 0.25 25.0867 0.25 24.3574V3Z" stroke="url(#paint0_linear_4254_12340)" stroke-width="0.5"/>
</g>
<defs>
<filter id="filter0_b_4254_12340" x="-31.4" y="-31.4" width="94.8" height="94.8" filterUnits="userSpaceOnUse" color-interpolation-filters="sRGB">
<feFlood flood-opacity="0" result="BackgroundImageFix"/>
<feGaussianBlur in="BackgroundImageFix" stdDeviation="15.7"/>
<feComposite in2="SourceAlpha" operator="in" result="effect1_backgroundBlur_4254_12340"/>
<feBlend mode="normal" in="SourceGraphic" in2="effect1_backgroundBlur_4254_12340" result="shape"/>
</filter>
<linearGradient id="paint0_linear_4254_12340" x1="32" y1="-5.5" x2="2" y2="36" gradientUnits="userSpaceOnUse">
<stop stop-color="white" stop-opacity="0.5"/>
<stop offset="1" stop-color="#999999" stop-opacity="0"/>
</linearGradient>
</defs>
</svg>
